<svg width="33" height="33" viewBox="0 0 33 33" fill="none" xmlns="http://www.w3.org/2000/svg">
<rect x="0.947266" y="0.0458984" width="32" height="32" rx="9.6" fill="#FFE6DC"/>
<path opacity="0.4" fill-rule="evenodd" clip-rule="evenodd" d="M17.1855 16.1384C17.1855 16.4564 16.9167 16.7144 16.5855 16.7144C16.2543 16.7144 15.9855 16.4564 15.9855 16.1384V13.978C15.9855 13.6601 16.2543 13.402 16.5855 13.402C16.9167 13.402 17.1855 13.6601 17.1855 13.978V16.1384ZM16.5839 18.8917C16.2527 18.8917 15.9839 18.6621 15.9839 18.3441V18.2881C15.9839 17.9701 16.2527 17.7121 16.5839 17.7121C16.9151 17.7121 17.1839 17.9701 17.1839 18.2881C17.1839 18.606 16.9151 18.8917 16.5839 18.8917ZM22.1639 10.9567C20.7295 9.57585 18.8215 8.81476 16.7903 8.81476C14.7591 8.81476 12.8487 9.57585 11.4143 10.9567C9.16951 13.1186 8.55751 16.4379 9.88391 19.1974C10.0367 19.5637 10.1367 19.8195 10.1367 20.0353C10.1367 20.291 10.0239 20.6105 9.91431 20.9192C9.70231 21.5175 9.46231 22.1956 9.97591 22.6918C10.4959 23.1902 11.2015 22.9567 11.8263 22.7486C12.1431 22.6434 12.4711 22.5351 12.7311 22.5336C12.9639 22.5336 13.2567 22.6465 13.5951 22.7778C14.6103 23.2286 15.6951 23.4475 16.7719 23.4475C18.7535 23.4475 20.7095 22.7064 22.1639 21.3071C25.1263 18.4532 25.1263 13.8098 22.1639 10.9567Z" fill="#F9681C"/>
<path fill-rule="evenodd" clip-rule="evenodd" d="M17.1855 16.1384C17.1855 16.4563 16.9167 16.7144 16.5855 16.7144C16.2543 16.7144 15.9855 16.4563 15.9855 16.1384V13.978C15.9855 13.66 16.2543 13.402 16.5855 13.402C16.9167 13.402 17.1855 13.66 17.1855 13.978V16.1384ZM16.5839 18.8917C16.2527 18.8917 15.9839 18.662 15.9839 18.3441V18.288C15.9839 17.9701 16.2527 17.712 16.5839 17.712C16.9151 17.712 17.1839 17.9701 17.1839 18.288C17.1839 18.606 16.9151 18.8917 16.5839 18.8917Z" fill="#F9681C"/>
</svg>
