<svg width="28" height="29" viewBox="0 0 28 29" fill="none" xmlns="http://www.w3.org/2000/svg">
<path d="M9.42871 2.93793V6.3665" stroke="#121212" stroke-width="1.71429" stroke-miterlimit="10" stroke-linecap="round" stroke-linejoin="round"/>
<path d="M18.5723 2.93793V6.3665" stroke="#121212" stroke-width="1.71429" stroke-miterlimit="10" stroke-linecap="round" stroke-linejoin="round"/>
<path d="M4.28613 11.0407H23.7147" stroke="#121212" stroke-width="1.71429" stroke-miterlimit="10" stroke-linecap="round" stroke-linejoin="round"/>
<path d="M20.8576 26.9379C23.3823 26.9379 25.429 24.8912 25.429 22.3665C25.429 19.8418 23.3823 17.7951 20.8576 17.7951C18.3328 17.7951 16.2861 19.8418 16.2861 22.3665C16.2861 24.8912 18.3328 26.9379 20.8576 26.9379Z" stroke="#121212" stroke-width="1.71429" stroke-miterlimit="10" stroke-linecap="round" stroke-linejoin="round"/>
<path d="M22.56 22.4235H19.1543" stroke="#121212" stroke-width="1.71429" stroke-miterlimit="10" stroke-linecap="round" stroke-linejoin="round"/>
<path d="M20.8574 20.755V24.1721" stroke="#121212" stroke-width="1.71429" stroke-miterlimit="10" stroke-linecap="round" stroke-linejoin="round"/>
<path d="M24.2863 10.3665V19.3493C23.452 18.4008 22.2291 17.7951 20.8577 17.7951C18.332 17.7951 16.2863 19.8408 16.2863 22.3665C16.2863 23.2236 16.5263 24.0351 16.9491 24.7208C17.1891 25.1322 17.4977 25.4979 17.852 25.7951H9.42913C5.42913 25.7951 3.71484 23.5094 3.71484 20.0808V10.3665C3.71484 6.93794 5.42913 4.65222 9.42913 4.65222H18.572C22.572 4.65222 24.2863 6.93794 24.2863 10.3665Z" stroke="#121212" stroke-width="1.71429" stroke-miterlimit="10" stroke-linecap="round" stroke-linejoin="round"/>
<path d="M13.9948 16.3094H14.0051" stroke="#121212" stroke-width="2.28571" stroke-linecap="round" stroke-linejoin="round"/>
<path d="M9.76535 16.3094H9.77561" stroke="#121212" stroke-width="2.28571" stroke-linecap="round" stroke-linejoin="round"/>
<path d="M9.76535 19.738H9.77561" stroke="#121212" stroke-width="2.28571" stroke-linecap="round" stroke-linejoin="round"/>
</svg>
