<svg width="41" height="41" viewBox="0 0 41 41" fill="none" xmlns="http://www.w3.org/2000/svg">
<rect x="0.947266" y="0.0458984" width="40" height="40" rx="12" fill="#E5E9F0"/>
<path d="M25.1665 26.1359C24.6931 26.1259 24.3124 25.7459 24.3124 25.2859C24.3021 24.8259 24.6829 24.4469 25.1562 24.4369H25.1665C25.6502 24.4369 26.0413 24.8169 26.0413 25.2859C26.0413 25.7559 25.6502 26.1359 25.1665 26.1359ZM20.9678 22.4559C20.4945 22.4769 20.1034 22.1159 20.0828 21.6569C20.0828 21.1969 20.4533 20.8169 20.9267 20.7959C21.3898 20.7959 21.7705 21.1469 21.7808 21.5959C21.8014 22.0569 21.4309 22.4369 20.9678 22.4559ZM20.9678 26.0859C20.4945 26.1069 20.1034 25.7459 20.0828 25.2859C20.0828 24.8259 20.4533 24.4469 20.9267 24.4259C21.3898 24.4259 21.7705 24.7769 21.7808 25.2269C21.8014 25.6869 21.4309 26.0669 20.9678 26.0859ZM16.7383 22.4559C16.2649 22.4769 15.8739 22.1159 15.8533 21.6569C15.8533 21.1969 16.2237 20.8169 16.6971 20.7959C17.1602 20.7959 17.541 21.1469 17.5513 21.5959C17.5719 22.0569 17.2014 22.4369 16.7383 22.4559ZM16.728 26.0859C16.2546 26.1069 15.8636 25.7459 15.843 25.2859C15.843 24.8259 16.2135 24.4469 16.6868 24.4259C17.1499 24.4259 17.5307 24.7769 17.541 25.2269C17.5616 25.6869 17.1911 26.0669 16.728 26.0859ZM24.3227 21.6469C24.3227 21.1869 24.6931 20.8169 25.1665 20.8069C25.6296 20.8069 26.0001 21.1659 26.0207 21.6069C26.031 22.0669 25.6605 22.4469 25.1974 22.4559C24.724 22.4659 24.333 22.1159 24.3227 21.6569V21.6469ZM11.5723 17.3029V24.9159C11.5723 28.0759 13.651 30.0459 16.9132 30.0459H24.971C28.2641 30.0459 30.3223 28.1159 30.3223 24.9769V17.3029H11.5723Z" fill="#080C16"/>
<path opacity="0.4" d="M11.5757 17.3028C11.5891 16.7158 11.6405 15.5508 11.7373 15.1758C12.2312 13.0668 13.9086 11.7268 16.3064 11.5358H25.5888C27.966 11.7368 29.664 13.0858 30.1579 15.1758C30.2536 15.5408 30.3051 16.7148 30.3185 17.3028H11.5757Z" fill="#080C16"/>
<path d="M17.0981 14.6359C17.5509 14.6359 17.8905 14.3069 17.8905 13.8659V10.8169C17.8905 10.3759 17.5509 10.0459 17.0981 10.0459C16.6453 10.0459 16.3057 10.3759 16.3057 10.8169V13.8659C16.3057 14.3069 16.6453 14.6359 17.0981 14.6359Z" fill="#080C16"/>
<path d="M24.7963 14.6359C25.2388 14.6359 25.5887 14.3069 25.5887 13.8659V10.8169C25.5887 10.3759 25.2388 10.0459 24.7963 10.0459C24.3435 10.0459 24.0039 10.3759 24.0039 10.8169V13.8659C24.0039 14.3069 24.3435 14.6359 24.7963 14.6359Z" fill="#080C16"/>
</svg>
