<svg width="40" height="41" viewBox="0 0 40 41" fill="none" xmlns="http://www.w3.org/2000/svg">
<rect y="0.5" width="40" height="40" rx="12" fill="#FFF5DB"/>
<path opacity="0.4" fill-rule="evenodd" clip-rule="evenodd" d="M19.6256 18.9089C19.8781 18.8101 20.1609 18.8103 20.4133 18.9094L28.6437 22.1424C29.716 22.5631 30.4166 23.5658 30.4166 24.6775V25.3304C30.4166 26.8423 29.1401 28.0701 27.5638 28.0701H12.4371C10.8601 28.0701 9.58325 26.8426 9.58325 25.3304V24.6795C9.58325 23.5652 10.2858 22.5635 11.3589 22.1425L19.6256 18.9089ZM12.1465 23.9941C11.8557 24.1084 11.6666 24.3792 11.6666 24.6795V25.3304C11.6666 25.7388 12.0114 26.0701 12.4371 26.0701H27.5638C27.988 26.0701 28.3333 25.7392 28.3333 25.3304V24.6775C28.3333 24.3767 28.1437 24.1067 27.8562 23.994L20.0179 20.9151L12.1465 23.9941Z" fill="#E1B100"/>
<path fill-rule="evenodd" clip-rule="evenodd" d="M19.3103 12.9992C18.0764 13.2665 17.0971 14.18 16.7666 15.3718C16.566 16.0952 16.6864 16.6749 17.0955 16.9545C17.6216 17.3141 18.3785 17.137 18.635 16.5945C18.8653 16.1071 18.776 15.6209 19.2407 15.2293C20.018 14.5742 21.2609 15.1168 21.2609 16.1113C21.2609 16.6947 21.0359 16.9843 20.2903 17.3604C19.614 17.7016 19.1541 18.2547 19.0334 18.8721C19.0053 19.0162 18.9251 19.1635 18.8553 19.1994C18.7854 19.2353 17.9639 19.5646 17.0298 19.9312C16.0956 20.2978 15.2586 20.6435 15.1698 20.6993C15.081 20.7552 14.9505 20.9179 14.8797 21.061C14.5616 21.7046 15.0649 22.4913 15.7953 22.492C15.9601 22.4922 16.7894 22.2069 18.0396 21.7198L20.0226 20.9473L21.9917 21.7198C23.3222 22.2417 24.0444 22.5352 24.234 22.5352C25.3796 22.5905 25.8481 21.2762 25.0122 20.7367C24.91 20.632 24.1166 20.371 22.9952 19.9357C22.0029 19.5506 21.1915 19.2197 21.1925 19.2004C21.1946 19.1519 21.453 18.9904 21.7277 18.826C22.1413 18.5784 22.4737 18.3702 22.759 17.9849C24.226 16.0043 22.9467 13.1435 20.2701 12.9391C19.955 12.915 19.5942 12.9377 19.3103 12.9992Z" fill="#E1B100"/>
</svg>
