<svg width="28" height="29" viewBox="0 0 28 29" fill="none" xmlns="http://www.w3.org/2000/svg">
<path d="M24.2863 8.65221V20.0808C24.2863 23.5094 22.572 25.7951 18.572 25.7951H9.42913C5.42913 25.7951 3.71484 23.5094 3.71484 20.0808V8.65221C3.71484 5.22364 5.42913 2.93793 9.42913 2.93793H18.572C22.572 2.93793 24.2863 5.22364 24.2863 8.65221Z" stroke="#121212" stroke-width="1.71429" stroke-miterlimit="10" stroke-linecap="round" stroke-linejoin="round"/>
<path d="M16.8574 5.79507V8.08079C16.8574 9.33793 17.886 10.3665 19.1431 10.3665H21.4289" stroke="#121212" stroke-width="1.71429" stroke-miterlimit="10" stroke-linecap="round" stroke-linejoin="round"/>
<path d="M8.83528 18.355C8.45814 17.1779 8.90382 15.7265 10.1267 15.3265C10.7781 15.1208 11.5781 15.2922 12.0238 15.9208C12.4467 15.2693 13.281 15.1208 13.921 15.3265C15.1553 15.7265 15.5896 17.1779 15.2238 18.355C14.641 20.2179 12.5953 21.1893 12.0238 21.1893C11.4638 21.1779 9.44099 20.2293 8.83528 18.355Z" stroke="#121212" stroke-width="1.71429" stroke-linecap="round" stroke-linejoin="round"/>
</svg>
