<svg width="40" height="41" viewBox="0 0 40 41" fill="none" xmlns="http://www.w3.org/2000/svg">
<rect y="0.5" width="40" height="40" rx="12" fill="#EEE6FF"/>
<path opacity="0.4" fill-rule="evenodd" clip-rule="evenodd" d="M28.8601 19.6591V25.7791C28.8601 28.3891 27.2601 30.1491 24.8701 30.1491H15.1301C12.7401 30.1491 11.1401 28.3891 11.1401 25.7791V19.6591C11.1401 17.0391 12.7401 15.2891 15.1301 15.2891H24.8701C27.2601 15.2891 28.8601 17.0391 28.8601 19.6591Z" fill="#8F46E7"/>
<path fill-rule="evenodd" clip-rule="evenodd" d="M11.1401 25.6392H28.8601V24.1392H11.1401V25.6392Z" fill="#8F46E7"/>
<path fill-rule="evenodd" clip-rule="evenodd" d="M16.396 12.3516C17.844 12.3516 18.64 13.9446 19.006 14.9916H16.396C15.706 14.9916 15.144 14.3986 15.144 13.6716C15.144 12.9436 15.706 12.3516 16.396 12.3516ZM23.601 12.3516C24.291 12.3516 24.852 12.9436 24.852 13.6716C24.852 14.3986 24.291 14.9916 23.601 14.9916H20.99C21.356 13.9446 22.152 12.3516 23.601 12.3516ZM16.396 16.4916H18.699L17.128 19.1006C16.915 19.4556 17.029 19.9156 17.384 20.1296C17.505 20.2026 17.639 20.2376 17.771 20.2376C18.025 20.2376 18.273 20.1076 18.414 19.8736L19.998 17.2416L21.583 19.8736C21.723 20.1076 21.971 20.2376 22.226 20.2376C22.357 20.2376 22.491 20.2026 22.612 20.1296C22.967 19.9156 23.081 19.4556 22.868 19.1006L21.297 16.4916H23.601C25.118 16.4916 26.352 15.2266 26.352 13.6716C26.352 12.1166 25.118 10.8516 23.601 10.8516C21.747 10.8516 20.633 12.2206 19.998 13.4886C19.364 12.2206 18.25 10.8516 16.396 10.8516C14.878 10.8516 13.644 12.1166 13.644 13.6716C13.644 15.2266 14.878 16.4916 16.396 16.4916Z" fill="#8F46E7"/>
</svg>
