<svg width="273" height="273" viewBox="0 0 273 273" fill="none" xmlns="http://www.w3.org/2000/svg">
<g clip-path="url(#clip0_23_16185)">
<path d="M138.049 240.919C145.748 240.919 151.989 239.644 151.989 238.071C151.989 236.498 145.748 235.224 138.049 235.224C130.35 235.224 124.109 236.498 124.109 238.071C124.109 239.644 130.35 240.919 138.049 240.919Z" fill="#080C16"/>
</g>
<g clip-path="url(#clip1_23_16185)">
<path d="M88.8762 241.599C96.3168 241.599 102.349 240.381 102.349 238.879C102.349 237.376 96.3168 236.159 88.8762 236.159C81.4355 236.159 75.4037 237.376 75.4037 238.879C75.4037 240.381 81.4355 241.599 88.8762 241.599Z" fill="#080C16"/>
</g>
<g clip-path="url(#clip2_23_16185)">
<path d="M229.231 156.946C233.226 160.117 226.102 167.41 213.974 169.7C201.218 172.108 191.754 170.039 186.071 168.597C186.071 168.597 197.419 166.579 202.499 164.714C215.602 159.888 224.634 153.291 229.231 156.946ZM225.067 101.215C227.908 105.252 229.528 105.472 231.937 108.533C238.289 116.598 232.462 130.412 221.709 134.966C211.506 139.29 200.226 135.22 196.435 126.163C187.454 113.096 176.369 90.6066 175.317 82.8304C170.381 81.694 161.366 73.6126 162.486 66.7013C165.021 63.3517 171.9 60.5703 177.718 64.5474C183.62 68.5839 181.755 75.7495 189.04 79.5571C196.172 83.2883 205.993 76.1057 215.068 82.2452C222.455 87.2485 220.597 94.8635 225.067 101.215Z" fill="#080C16"/>
<path d="M182.569 98.0774C176.895 102.334 171.069 100.019 171.069 100.019C169.915 95.1264 168.041 91.251 166.574 88.9953C165.37 87.1467 164.394 86.18 164.165 86.1036C164.14 86.0952 164.123 86.0867 164.097 86.0782C162.427 86.2308 159.009 86.18 158.05 85.3744C155.71 83.3985 157.236 77.8526 157.635 76.0887C157.041 75.5884 156.439 74.3164 157.38 74.0535C157.822 73.9178 158.271 73.7567 158.593 73.4175C158.924 73.0698 159.17 72.561 159.382 72.1455C159.543 71.8233 159.696 71.501 159.848 71.1788C160.06 70.7209 160.264 70.2714 160.485 69.822C160.485 69.822 160.485 69.8135 160.493 69.8135C160.654 69.4828 160.832 69.1521 161.027 68.8298C161.112 68.6856 161.205 68.5415 161.299 68.3973C161.655 67.8122 162.054 67.2525 162.486 66.7268C163.41 71.925 167.999 76.1057 171.858 77.5727C172.188 77.6999 172.553 77.6914 172.875 77.5642C173.757 77.225 175.657 76.6993 177.124 77.6999C178.854 78.8786 178.278 81.5329 175.318 82.8558C177.048 90.3182 182.052 92.3365 185.495 92.4806C185.707 94.8635 182.569 98.0774 182.569 98.0774Z" fill="#F4ADA2"/>
<path d="M182.577 98.0774C176.895 102.334 171.069 100.019 171.069 100.019C171.043 99.9176 171.026 99.8243 171.001 99.7226C172.129 100.545 177.65 101.283 182.577 98.0774ZM182.577 98.0774C182.569 98.069 182.569 98.0774 182.577 98.0774C181.958 95.3469 182.331 93.4219 183.527 92.1923C184.172 92.3534 184.833 92.4467 185.495 92.4721C185.707 94.8635 182.577 98.0774 182.577 98.0774Z" fill="#F4ADA2"/>
<path d="M172.137 83.2204C172.027 83.195 171.908 83.2628 171.883 83.3731C171.857 83.4833 171.925 83.602 172.035 83.6275C172.358 83.6953 172.68 83.7292 173.011 83.7208C173.613 83.7208 174.453 83.6275 175.419 83.2628C175.385 83.1272 175.352 82.983 175.318 82.8473C173.486 83.5427 172.154 83.2289 172.137 83.2204Z" fill="#D37E70"/>
<path opacity="0.52" d="M166.217 81.9484C167.529 81.9484 168.592 80.8854 168.592 79.574C168.592 78.2627 167.529 77.1996 166.217 77.1996C164.906 77.1996 163.843 78.2627 163.843 79.574C163.843 80.8854 164.906 81.9484 166.217 81.9484Z" fill="#E57281"/>
<path d="M166.574 88.9953C165.37 87.1467 164.394 86.18 164.165 86.1036C164.14 86.0952 164.123 86.0867 164.097 86.0782C165.166 85.9086 165.98 85.7051 167.184 85.315C167.778 85.1199 168.753 84.7044 169.152 85.1115C169.678 85.6203 168.838 87.7233 166.574 88.9953Z" fill="#D37E70"/>
<path d="M171.662 81.2615C171.543 81.2615 171.45 81.1683 171.45 81.0495C171.45 80.9987 171.467 80.9478 171.509 80.9054C172.578 79.7351 173.706 79.4214 174.469 79.362C174.953 79.3196 175.436 79.3705 175.903 79.5147C176.013 79.5571 176.064 79.6758 176.03 79.786C175.987 79.8963 175.869 79.9471 175.758 79.9132C175.674 79.8793 173.681 79.1755 171.832 81.1937C171.781 81.2361 171.721 81.2615 171.662 81.2615Z" fill="#D37E70"/>
<path d="M212.77 203.561C212.744 203.628 212.727 203.688 212.71 203.739C212.609 204.035 212.541 204.197 212.541 204.197C212.515 204.188 212.481 204.188 212.448 204.18C212.286 204.154 212.117 204.129 211.956 204.103C211.752 204.069 211.549 204.044 211.345 204.01L210.862 203.934C210.675 203.9 210.497 203.874 210.31 203.84L210.056 203.79C209.708 203.73 209.36 203.662 209.021 203.594C208.86 203.561 208.699 203.527 208.529 203.493C208.461 203.476 208.394 203.467 208.317 203.45C207.995 203.382 207.673 203.315 207.35 203.238C207.232 203.213 207.104 203.179 206.986 203.154C206.96 203.145 206.926 203.137 206.901 203.137C206.765 203.103 206.638 203.077 206.502 203.043C206.214 202.975 205.926 202.908 205.646 202.831C205.552 202.806 205.451 202.78 205.357 202.755C205.273 202.738 205.196 202.713 205.111 202.696C205.001 202.67 204.899 202.636 204.789 202.611C204.645 202.577 204.501 202.534 204.365 202.501C204.221 202.458 204.077 202.424 203.941 202.382C203.797 202.339 203.653 202.306 203.517 202.263C203.373 202.221 203.237 202.187 203.093 202.144C202.881 202.085 202.677 202.026 202.465 201.958C202.355 201.924 202.236 201.89 202.126 201.856C201.999 201.822 201.88 201.78 201.753 201.746C201.634 201.712 201.507 201.67 201.388 201.636C201.244 201.593 201.108 201.542 200.964 201.5C200.82 201.458 200.684 201.407 200.54 201.364C200.421 201.33 200.311 201.288 200.192 201.254C200.116 201.229 200.031 201.203 199.955 201.178C199.87 201.152 199.777 201.118 199.692 201.093C199.412 201 199.132 200.906 198.852 200.805H198.844C198.717 200.762 198.581 200.711 198.445 200.669C198.31 200.618 198.174 200.576 198.038 200.525L197.479 200.321C197.241 200.236 197.004 200.143 196.766 200.05L196.359 199.897C196.172 199.829 195.986 199.753 195.799 199.677C195.613 199.6 195.426 199.533 195.24 199.456C195.053 199.38 194.866 199.304 194.688 199.227C194.502 199.151 194.324 199.075 194.137 198.998C193.984 198.93 193.832 198.871 193.679 198.803C188.557 196.624 183.646 193.953 179.372 191.12C173.545 187.262 168.872 183.09 166.379 179.401C166.302 179.282 166.226 179.164 166.15 179.053C166.15 179.053 166.15 179.045 166.141 179.045C166.073 178.943 166.022 178.833 165.946 178.74C165.946 178.74 168.558 177.128 171.79 175.127C171.798 175.119 171.807 175.11 171.824 175.11C172.816 174.499 173.867 173.855 174.911 173.211C176.386 172.303 177.862 171.404 179.185 170.59C180.991 169.488 182.51 168.572 183.358 168.072C183.705 167.868 183.934 167.741 184.028 167.69L184.07 167.665C184.206 167.715 184.341 167.775 184.477 167.826C184.91 168.004 185.325 168.19 185.732 168.385L185.885 168.462C185.927 168.487 185.97 168.504 186.021 168.53C186.038 168.538 186.063 168.547 186.089 168.563C186.106 168.572 186.114 168.58 186.131 168.589C186.148 168.597 186.165 168.606 186.19 168.614C186.199 168.623 186.216 168.623 186.224 168.631C187.98 169.539 189.515 170.616 190.914 171.811C194.765 175.093 197.623 179.223 201.354 182.869L201.456 182.971C201.532 183.047 201.617 183.132 201.702 183.208C202.075 183.565 202.465 183.921 202.864 184.268C202.94 184.336 203.025 184.413 203.11 184.48C203.169 184.531 203.237 184.582 203.297 184.642C203.356 184.693 203.415 184.743 203.483 184.794C203.576 184.871 203.661 184.947 203.754 185.023C204.043 185.261 204.34 185.498 204.645 185.727C204.679 185.753 204.721 185.786 204.755 185.812L204.764 185.82C204.823 185.863 204.874 185.905 204.933 185.948C204.959 185.964 204.984 185.99 205.018 186.007C205.027 186.015 205.044 186.024 205.052 186.032C205.145 186.1 205.247 186.177 205.34 186.244C205.374 186.27 205.417 186.295 205.451 186.321L205.459 186.329C205.731 186.516 206.002 186.702 206.273 186.88C206.341 186.923 206.401 186.965 206.468 187.008C206.604 187.092 206.731 187.177 206.867 187.253C206.943 187.296 207.02 187.347 207.088 187.389C207.113 187.406 207.13 187.415 207.155 187.432L207.333 187.533C207.605 187.694 207.876 187.847 208.148 187.991C208.241 188.042 208.326 188.093 208.419 188.135L208.673 188.263C208.75 188.305 208.835 188.339 208.911 188.381L209.318 188.585L209.649 188.737L209.98 188.89C209.988 188.89 209.988 188.899 209.996 188.899C210.005 188.907 210.013 188.907 210.022 188.916C210.115 188.958 210.217 189 210.319 189.043L210.497 189.119C210.565 189.187 210.633 189.255 210.692 189.331C210.734 189.373 210.777 189.416 210.811 189.467C215.306 194.445 213.482 201.432 212.77 203.561Z" fill="#F4ADA2"/>
<path d="M165.878 179.164C165.955 179.13 166.039 179.087 166.133 179.036L166.107 179.52C166.09 179.528 166.073 179.537 166.065 179.545C166.039 179.562 166.005 179.562 165.972 179.562C165.853 179.562 165.76 179.469 165.76 179.35C165.76 179.274 165.81 179.197 165.878 179.164Z" fill="#D37E70"/>
<path d="M188.608 166.969C188.599 167.02 188.574 167.071 188.523 167.105C188.489 167.13 188.455 167.156 188.421 167.173C187.955 167.512 187.208 167.978 186.258 168.547C186.241 168.555 186.233 168.563 186.216 168.572L186.165 168.606L186.157 168.614C186.106 168.64 186.055 168.674 186.004 168.699C183.807 170.014 180.644 171.777 177.455 173.516C173.537 175.653 169.576 177.747 167.32 178.901C166.947 179.087 166.625 179.257 166.353 179.392C166.277 179.274 166.201 179.155 166.124 179.045C166.124 179.045 166.124 179.036 166.116 179.036C166.116 179.036 166.124 179.036 166.133 179.028C166.591 178.807 167.202 178.494 167.931 178.112C171.01 176.518 176.191 173.753 180.61 171.294C180.652 171.269 180.695 171.243 180.737 171.226C182.527 170.226 184.189 169.284 185.529 168.496C185.529 168.496 185.537 168.496 185.537 168.487C185.597 168.453 185.648 168.419 185.707 168.385C186.86 167.699 187.751 167.139 188.251 166.766C188.345 166.698 188.48 166.715 188.548 166.808C188.608 166.859 188.625 166.918 188.608 166.969Z" fill="#D37E70"/>
<path d="M209.479 150.018C206.621 156.98 197.606 161.881 192.899 164.578C192.882 164.586 192.874 164.595 192.857 164.603C192.806 164.629 192.755 164.663 192.704 164.697C191.652 165.299 190.236 166.087 188.616 166.969C187.759 167.444 186.844 167.936 185.885 168.462C185.851 168.479 185.817 168.496 185.783 168.521C185.758 168.538 185.732 168.547 185.707 168.563C184.13 169.42 182.45 170.327 180.771 171.235C180.763 171.243 180.746 171.252 180.737 171.252C180.703 171.269 180.678 171.286 180.644 171.303C175.674 173.974 170.679 176.636 168.041 178.036C166.973 178.604 166.286 178.968 166.158 179.036C166.15 179.036 166.15 179.045 166.141 179.045H166.133L166.107 179.528C165.683 187.041 161.104 196.03 157.499 203.399C157.007 204.4 156.541 205.367 156.1 206.3L155.973 206.579C155.888 206.758 155.803 206.944 155.718 207.122C155.676 207.207 155.642 207.292 155.599 207.377C155.583 207.411 155.566 207.444 155.557 207.478C155.532 207.538 155.506 207.589 155.481 207.639C155.472 207.648 155.472 207.665 155.464 207.673C155.404 207.801 155.354 207.919 155.294 208.047C155.26 208.114 155.235 208.182 155.201 208.25L155.023 208.657C154.904 208.928 154.785 209.191 154.684 209.454C154.624 209.581 154.573 209.717 154.522 209.844C154.446 210.039 154.37 210.226 154.293 210.412C154.175 210.726 154.056 211.023 153.954 211.32C153.937 211.371 153.912 211.43 153.895 211.481C153.776 211.82 153.666 212.151 153.573 212.465C153.564 212.507 153.547 212.549 153.539 212.592C153.445 212.914 153.361 213.228 153.301 213.525C153.293 213.559 153.284 213.584 153.284 213.618C153.276 213.66 153.267 213.694 153.259 213.737C153.259 213.737 153.259 213.771 153.242 213.821V213.83C153.242 213.847 153.233 213.864 153.233 213.889V213.898C153.208 214.016 153.174 214.195 153.123 214.415C153.115 214.44 153.106 214.466 153.106 214.491C153.106 214.5 153.098 214.508 153.098 214.517C153.089 214.542 153.081 214.568 153.081 214.602C153.081 214.61 153.072 214.619 153.072 214.627C153.064 214.678 153.047 214.72 153.038 214.771C153.03 214.788 153.03 214.814 153.021 214.839C152.987 214.949 152.953 215.068 152.92 215.195C152.911 215.238 152.894 215.272 152.886 215.314C152.877 215.348 152.869 215.373 152.86 215.407C152.852 215.441 152.843 215.475 152.826 215.509C152.792 215.611 152.758 215.721 152.716 215.831L152.665 215.984C152.64 216.06 152.606 216.145 152.58 216.221C152.563 216.272 152.538 216.332 152.521 216.382C152.495 216.433 152.478 216.493 152.453 216.544C152.445 216.569 152.428 216.603 152.419 216.628C152.394 216.688 152.368 216.739 152.351 216.798C152.317 216.883 152.275 216.968 152.241 217.052C152.114 217.341 151.97 217.629 151.8 217.926C151.715 218.07 151.63 218.223 151.546 218.367C151.461 218.511 151.359 218.655 151.266 218.799C151.147 218.977 151.028 219.147 150.893 219.316C150.85 219.376 150.808 219.427 150.757 219.486C150.596 219.681 150.435 219.868 150.256 220.054L150.104 220.207C149.858 220.453 149.595 220.682 149.315 220.894C149.171 220.996 149.027 221.097 148.874 221.199C148.408 221.496 147.89 221.75 147.314 221.937C143.692 223.107 140.359 221.157 139.528 220.605C139.52 220.597 139.511 220.597 139.503 220.588C139.494 220.58 139.477 220.572 139.469 220.563C139.46 220.555 139.452 220.555 139.443 220.546C139.375 220.495 139.333 220.47 139.333 220.47C139.324 220.393 139.316 220.317 139.307 220.249C138.934 216.84 138.722 213.406 138.68 209.98C138.68 209.751 138.671 209.531 138.671 209.31C138.663 208.403 138.671 207.504 138.688 206.596C138.697 206.317 138.697 206.028 138.705 205.748C138.739 204.341 138.807 202.942 138.9 201.534L138.977 200.465C140.664 178.833 148.026 164.459 155.489 154.758V154.75C155.498 154.741 155.506 154.733 155.515 154.716C155.566 154.648 155.684 154.495 155.862 154.275C155.947 154.173 156.041 154.046 156.159 153.918C156.744 153.206 157.703 152.07 159.017 150.671C162.673 146.736 169.178 140.69 178.049 135.992C178.066 135.983 178.091 135.966 178.108 135.958C178.117 135.958 178.125 135.949 178.134 135.949C178.159 135.932 178.176 135.924 178.201 135.915C178.295 135.864 178.388 135.814 178.481 135.771C178.498 135.763 178.515 135.754 178.541 135.746C178.566 135.729 178.591 135.72 178.617 135.703C184.274 132.778 190.88 130.42 198.31 129.496C199.463 129.352 200.634 129.242 201.821 129.174C203.076 129.097 204.357 129.063 205.654 129.08V128.996C205.663 129.013 205.671 129.021 205.68 129.038C205.943 129.445 207.783 132.345 209.132 136.272C210.522 140.3 211.379 145.396 209.479 150.018Z" fill="#F4ADA2"/>
<path d="M192.89 164.586C192.873 164.595 192.865 164.603 192.848 164.612C191.22 165.545 188.785 167.029 185.893 168.597C184.282 169.471 182.696 170.387 180.974 171.311C174.487 168.971 160.111 160.033 155.447 154.775C156.1 154.911 186.623 162.695 192.89 164.586Z" fill="#D37E70"/>
<path d="M212.541 204.205C207.936 203.561 203.313 202.365 198.852 200.805C198.581 200.711 198.31 200.618 198.047 200.516C196.724 200.041 195.426 199.533 194.137 198.99C195.528 195.852 199.87 186.168 201.346 182.861L201.448 182.963C202.482 183.972 203.585 184.921 204.738 185.786L204.747 185.795C204.976 185.965 205.205 186.134 205.434 186.295L205.442 186.304C206.969 187.372 208.597 188.288 210.31 189.026L210.488 189.102C216.315 195.064 212.541 204.205 212.541 204.205ZM157.499 203.399C156.846 204.731 156.227 206.011 155.667 207.215C155.54 207.495 155.413 207.767 155.294 208.038C154.302 210.243 153.555 212.185 153.25 213.737C153.25 213.737 152.224 220.351 147.288 221.954C143.107 223.302 139.299 220.487 139.299 220.487C138.79 215.874 138.57 211.227 138.654 206.588C138.663 206.3 138.663 206.02 138.671 205.731C138.705 204.315 138.773 202.916 138.866 201.542C141.758 201.983 157.465 203.349 157.499 203.399Z" fill="#347AFF"/>
<path d="M155.667 207.215L138.671 205.757C138.663 206.028 138.654 206.308 138.654 206.588V206.613L155.303 208.038C155.421 207.767 155.54 207.495 155.667 207.215ZM204.747 185.795C204.704 185.761 204.662 185.727 204.628 185.702L198.038 200.516C198.301 200.61 198.573 200.703 198.836 200.796L205.323 186.21C205.137 186.075 204.942 185.939 204.747 185.795ZM123.855 238.235C125.254 239.236 128.57 239.889 133.634 238.329L158.025 230.705C156.286 226.541 152.826 221.945 153.25 213.889C150.825 214.508 150.29 216.221 148.043 217.654C145.439 219.316 141.716 218.443 135.381 223.005C135.279 223.073 135.177 223.132 135.075 223.2C135.05 223.217 135.016 223.234 134.991 223.251C133.277 224.337 131.674 225.592 130.199 226.991C124.55 232.418 123.906 237.667 123.855 238.193V238.218V238.235Z" fill="white"/>
<path d="M128.078 239.474C126.051 239.474 124.593 239.016 123.728 238.405C123.668 238.363 123.634 238.286 123.643 238.218V238.159C123.711 237.489 124.432 231.994 130.063 226.592C131.547 225.185 133.159 223.921 134.889 222.827L134.974 222.776C135.007 222.751 135.041 222.734 135.084 222.708C135.152 222.666 135.211 222.632 135.279 222.59C136.61 221.691 138.96 220.368 139.926 219.978C140.037 219.936 140.155 219.986 140.198 220.097C140.24 220.207 140.189 220.326 140.079 220.368C139.129 220.75 136.822 222.047 135.508 222.937L135.304 223.065C135.27 223.082 135.236 223.107 135.202 223.132L135.118 223.183C133.413 224.269 131.819 225.515 130.36 226.906C125 232.053 124.177 237.243 124.075 238.142C125.56 239.117 128.791 239.609 133.566 238.142L157.686 230.544C157.211 229.476 156.761 228.517 156.32 227.585C154.259 223.192 152.767 220.02 153.021 214.042C153.03 213.923 153.123 213.83 153.242 213.838C153.36 213.847 153.454 213.94 153.445 214.059C153.199 219.936 154.59 222.912 156.702 227.406C157.168 228.399 157.652 229.433 158.169 230.595C158.22 230.705 158.169 230.824 158.059 230.875C158.05 230.875 158.042 230.883 158.033 230.883L133.684 238.558C131.505 239.211 129.63 239.474 128.078 239.474Z" fill="#080C16"/>
<path d="M152.894 222.14C152.02 222.132 151.164 221.988 150.333 221.716C150.061 221.632 149.815 221.547 149.578 221.462C147.585 220.792 146.669 220.487 144.633 220.902C144.515 220.928 144.404 220.851 144.379 220.733C144.353 220.614 144.43 220.504 144.548 220.487C146.694 220.054 147.703 220.385 149.713 221.063C149.951 221.14 150.197 221.224 150.468 221.318C152.555 222.005 154.047 221.606 154.064 221.606C154.174 221.572 154.293 221.64 154.327 221.75C154.361 221.86 154.293 221.979 154.183 222.013C153.75 222.098 153.318 222.149 152.894 222.14ZM128.324 237.515C126.891 237.515 125.458 237.286 124.101 236.836C123.991 236.802 123.931 236.675 123.965 236.565C123.999 236.455 124.118 236.395 124.228 236.429C127.29 237.43 130.512 237.286 133.795 235.997C135.949 235.149 138.137 233.809 140.291 231.994C141.733 230.79 142.801 230.646 143.836 230.51C144.65 230.4 145.422 230.298 146.355 229.654C147.084 229.145 147.474 228.56 147.898 227.941C148.467 227.093 149.06 226.228 150.528 225.583C153.182 224.421 155.676 225.532 155.777 225.583C155.888 225.634 155.93 225.761 155.879 225.863C155.828 225.973 155.701 226.016 155.599 225.965C155.565 225.948 153.165 224.888 150.689 225.965C149.34 226.558 148.806 227.339 148.246 228.17C147.822 228.789 147.39 229.433 146.592 229.993C145.583 230.697 144.718 230.815 143.887 230.926C142.912 231.053 141.902 231.189 140.554 232.308C138.357 234.148 136.135 235.513 133.939 236.378C132.047 237.141 130.165 237.515 128.324 237.515Z" fill="#080C16"/>
<path d="M155.031 228.5C154.726 227.508 153.216 227.118 151.596 227.618C150.172 228.059 149.205 229.018 149.205 229.925C149.205 230.044 149.222 230.171 149.256 230.29C149.476 230.993 150.29 231.392 151.317 231.392C151.783 231.392 152.25 231.316 152.691 231.172C154.31 230.671 155.337 229.501 155.031 228.5ZM152.563 230.765C151.215 231.18 149.883 230.9 149.654 230.162C149.425 229.425 150.367 228.441 151.715 228.025C153.064 227.61 154.395 227.89 154.624 228.628C154.853 229.374 153.912 230.349 152.563 230.765Z" fill="#080C16"/>
<path d="M141.037 226.957C140.851 226.957 140.673 226.872 140.554 226.737C140.554 226.728 139.994 226.101 138.926 225.465C137.501 224.625 135.898 224.193 134.151 224.167C133.803 224.167 133.515 223.879 133.515 223.531C133.515 223.183 133.803 222.895 134.151 222.895H134.159C138.926 222.946 141.411 225.778 141.512 225.897C141.741 226.16 141.707 226.567 141.444 226.796C141.334 226.898 141.19 226.957 141.037 226.957ZM138.4 229.026C138.23 229.026 138.061 228.958 137.942 228.831C137.916 228.806 135.338 226.219 131.361 226.499C131.013 226.525 130.708 226.262 130.682 225.905C130.657 225.549 130.92 225.253 131.276 225.227C135.864 224.905 138.739 227.822 138.858 227.941C139.104 228.195 139.095 228.594 138.841 228.84C138.722 228.967 138.569 229.026 138.4 229.026ZM135.228 231.01C135.058 231.01 134.897 230.943 134.778 230.824C134.761 230.807 132.489 228.636 128.927 228.933C128.579 228.958 128.265 228.704 128.24 228.348C128.214 227.992 128.469 227.686 128.825 227.661C132.989 227.313 135.576 229.815 135.677 229.917C135.923 230.162 135.932 230.569 135.686 230.815C135.567 230.943 135.398 231.01 135.228 231.01Z" fill="#FFCE3E"/>
<path d="M225.525 223.802C226.865 222.725 228.401 219.715 228.282 214.415L227.595 188.856C223.185 189.136 217.664 191.46 210.022 188.865C209.937 191.468 211.362 192.375 212.134 194.936C213.024 197.896 211.337 201.229 214 208.564C214.042 208.674 214.068 208.793 214.102 208.911C214.11 208.945 214.118 208.971 214.127 209.005C214.712 210.947 215.475 212.838 216.425 214.635C220.106 221.547 224.983 223.599 225.483 223.785C225.492 223.794 225.5 223.794 225.508 223.794C225.525 223.794 225.525 223.802 225.525 223.802Z" fill="white"/>
<path d="M225.525 224.014C225.5 224.014 225.474 224.006 225.449 223.997H225.44C225.432 223.997 225.415 223.989 225.406 223.98C225.398 223.972 225.398 223.98 225.398 223.972C224.77 223.726 219.682 221.53 216.009 214.644C215.06 212.838 214.279 210.938 213.694 208.979L213.669 208.886C213.66 208.844 213.643 208.801 213.635 208.767C213.618 208.691 213.592 208.623 213.567 208.547C213.058 207.02 212.43 204.4 212.32 203.357C212.303 203.238 212.388 203.137 212.507 203.12C212.625 203.103 212.727 203.187 212.744 203.306V203.315C212.854 204.332 213.474 206.91 213.974 208.411C213.999 208.487 214.025 208.564 214.042 208.649C214.05 208.691 214.067 208.725 214.076 208.767L214.101 208.861C214.678 210.794 215.441 212.668 216.383 214.449C219.877 221.004 224.652 223.209 225.483 223.556C226.823 222.395 228.18 219.418 228.061 214.423L227.306 189.153C226.373 189.289 225.5 189.424 224.66 189.552C219.444 190.357 216.001 190.891 210.115 189.153C210.005 189.119 209.937 189 209.971 188.89C210.005 188.78 210.124 188.712 210.234 188.746C216.018 190.459 219.427 189.933 224.592 189.136C225.508 188.992 226.45 188.848 227.476 188.704C227.594 188.687 227.696 188.771 227.713 188.882V188.907L228.468 214.415C228.595 219.69 227.086 222.81 225.635 223.972C225.618 223.997 225.576 224.014 225.525 224.014Z" fill="#080C16"/>
<path d="M214.279 199.287H214.262C214.144 199.278 214.059 199.176 214.067 199.058C214.228 196.87 214.831 195.996 216.026 194.241C216.171 194.038 216.315 193.817 216.476 193.58C217.706 191.756 217.74 190.154 217.74 190.137C217.74 190.018 217.833 189.925 217.952 189.925C218.07 189.925 218.164 190.018 218.164 190.137C218.164 190.205 218.138 191.875 216.832 193.817C216.671 194.054 216.527 194.266 216.383 194.478C215.195 196.217 214.653 197.014 214.491 199.083C214.483 199.202 214.39 199.287 214.279 199.287ZM224.066 223.277C223.948 223.277 223.854 223.183 223.854 223.065C223.854 223.022 223.863 222.98 223.888 222.946C225.686 220.266 226.416 217.129 226.076 213.626C225.847 211.328 225.152 208.852 223.999 206.283C223.227 204.57 223.388 203.501 223.541 202.467C223.659 201.653 223.77 200.881 223.405 199.812C223.108 198.973 222.659 198.43 222.175 197.862C221.522 197.082 220.844 196.276 220.623 194.69C220.233 191.824 222.039 189.67 222.116 189.577C222.192 189.492 222.328 189.475 222.413 189.552C222.497 189.628 222.514 189.764 222.438 189.848C222.421 189.865 220.674 191.951 221.039 194.623C221.242 196.081 221.853 196.81 222.497 197.574C222.981 198.15 223.481 198.744 223.804 199.66C224.211 200.822 224.083 201.686 223.965 202.518C223.821 203.493 223.676 204.502 224.389 206.096C225.559 208.708 226.272 211.218 226.509 213.567C226.865 217.171 226.11 220.402 224.253 223.166C224.211 223.243 224.143 223.277 224.066 223.277Z" fill="#080C16"/>
<path d="M226.602 194.131C226.56 192.418 225.703 191.095 224.643 191.12C223.583 191.146 222.786 192.503 222.828 194.216C222.87 195.912 223.71 197.226 224.762 197.226H224.787C225.839 197.201 226.636 195.844 226.602 194.131ZM224.77 196.743C224.007 196.76 223.337 195.598 223.303 194.207C223.269 192.816 223.888 191.621 224.651 191.604H224.668C225.423 191.604 226.085 192.757 226.119 194.139V194.241C226.119 195.589 225.517 196.726 224.77 196.743Z" fill="#080C16"/>
<path d="M214.186 210.514C213.839 210.514 213.55 210.226 213.55 209.878C213.55 209.819 213.559 209.759 213.576 209.7C214.924 205.129 218.325 203.51 218.469 203.442C218.783 203.289 219.165 203.425 219.317 203.747C219.47 204.061 219.334 204.442 219.012 204.595H219.003C218.995 204.595 218.232 204.96 217.341 205.816C216.145 206.953 215.289 208.386 214.797 210.056C214.712 210.328 214.466 210.514 214.186 210.514ZM215.653 213.889C215.306 213.889 215.017 213.609 215.017 213.253C215.017 213.211 215.026 213.168 215.034 213.126C215.967 208.623 219.563 206.647 219.707 206.571C220.021 206.41 220.403 206.529 220.564 206.842C220.725 207.148 220.606 207.529 220.31 207.69C220.276 207.707 217.087 209.48 216.273 213.389C216.213 213.677 215.959 213.881 215.653 213.889ZM217.333 216.9C216.985 216.9 216.697 216.611 216.697 216.264C216.697 216.221 216.697 216.179 216.705 216.145C217.511 212.041 220.606 210.243 220.742 210.167C221.047 209.988 221.438 210.099 221.607 210.404C221.777 210.709 221.675 211.099 221.37 211.269H221.361C221.336 211.286 218.63 212.88 217.943 216.391C217.901 216.679 217.638 216.9 217.333 216.9Z" fill="#FFCE3E"/>
<path d="M204.162 122.118C215.637 114.003 221.921 106.049 222.574 102.597C223.04 100.13 221.641 97.628 218.435 99.5275C215.357 101.359 204.162 122.118 204.162 122.118Z" fill="#080C16"/>
<path d="M204.679 121.957C204.56 121.957 204.467 121.864 204.467 121.745C204.467 121.677 204.501 121.61 204.552 121.576C215.322 113.859 221.658 106.167 222.353 102.555C222.625 101.164 222.251 99.8583 221.446 99.3071C220.725 98.8152 219.716 98.9509 218.545 99.7056C218.443 99.765 218.316 99.7395 218.248 99.6378C218.189 99.536 218.214 99.4088 218.316 99.341C219.996 98.264 221.081 98.5354 221.683 98.9509C222.633 99.5954 223.074 101.071 222.769 102.631C222.404 104.514 220.555 107.431 217.697 110.628C214.381 114.342 209.92 118.243 204.798 121.915C204.772 121.949 204.73 121.957 204.679 121.957Z" fill="#FFCE3E"/>
<path d="M178.947 136.11C173.579 128.979 153.895 119.269 149.951 124.272C148.84 125.68 150.01 127.028 153.165 128.563C162.689 133.219 178.947 136.11 178.947 136.11Z" fill="#080C16"/>
<path d="M257.855 96.8054C258.678 96.585 259.95 96.8818 258.152 98.7474C256.922 100.028 252.554 102.784 248.221 106.362C239.875 113.274 237.763 116.445 229.104 123.535C221.141 130.056 213.05 127.791 204.162 122.118C204.221 121.957 211.557 101.283 211.566 101.241C213.287 102.351 216.111 104.353 218.189 105.981C218.987 106.608 219.673 107.177 220.148 107.626C229.02 100.13 242.021 91.9973 250.841 89.0293C259.509 86.1206 259.729 88.5035 252.19 92.8368C262.197 89.2497 262.045 91.7174 259.509 93.2099C261.366 92.7011 260.849 95.0162 257.855 96.8054Z" fill="#F4ADA2"/>
<path d="M252.435 96.3475C252.35 96.3814 252.3 96.4578 252.3 96.5426C252.3 96.6613 252.393 96.7546 252.512 96.7546C252.537 96.7546 252.562 96.7461 252.588 96.7376L253.207 96.4917C255.65 95.5165 257.973 94.5922 260.323 93.2099C260.144 93.1166 259.873 93.1081 259.508 93.2099C257.269 94.4989 255.378 95.1773 253.037 96.1101L252.435 96.3475ZM253.131 99.2307C253.131 99.3495 253.224 99.4427 253.343 99.4427C253.368 99.4427 253.394 99.4343 253.419 99.4258C253.444 99.4173 256.209 98.281 258.677 96.7885C258.44 96.7122 258.126 96.7376 257.863 96.8054C255.446 98.2555 253.292 99.0272 253.266 99.0357C253.182 99.0696 253.131 99.1459 253.131 99.2307ZM215.475 111.993C215.45 112.027 215.433 112.078 215.433 112.12C215.433 112.239 215.526 112.332 215.645 112.332C215.712 112.332 215.772 112.298 215.814 112.248C215.831 112.222 217.51 109.907 220.148 107.634C220.055 107.55 219.961 107.456 219.851 107.363C217.341 109.585 215.492 111.968 215.475 111.993Z" fill="#D37E70"/>
<path d="M241.783 93.8544C246.244 94.0834 255.879 91.1747 250.281 96.0253C247.703 98.2555 246.397 99.0866 243.632 102.224L241.783 93.8544Z" fill="#F4ADA2"/>
<path d="M243.632 102.436C243.513 102.436 243.42 102.343 243.42 102.224C243.42 102.173 243.437 102.122 243.471 102.08C245.583 99.6802 246.855 98.6202 248.475 97.2718C248.992 96.8394 249.526 96.3899 250.145 95.8641C251.799 94.431 251.825 93.9137 251.757 93.7611C251.485 93.1505 248.797 93.4728 246.643 93.7272C244.913 93.9307 243.132 94.1427 241.783 94.0749C241.664 94.0664 241.571 93.9731 241.58 93.8544C241.588 93.7357 241.681 93.6424 241.8 93.6509H241.809C243.123 93.7187 244.887 93.5067 246.6 93.3117C249.798 92.9385 251.782 92.7435 252.155 93.6C252.401 94.1512 251.867 94.9568 250.434 96.1949C249.815 96.7291 249.28 97.1786 248.763 97.611C247.16 98.9424 245.896 100.002 243.81 102.377C243.751 102.402 243.691 102.436 243.632 102.436Z" fill="#D37E70"/>
<path d="M178.1 135.262C178.091 135.44 178.083 135.61 178.066 135.788C177.099 150.264 170.144 154.275 159.594 150.883C148.916 147.448 141.903 142.165 132.87 140.749C127.315 139.876 121.743 141.046 119.055 140.596C116.502 140.172 117.036 139.256 117.859 138.951C114.568 138.799 113.449 137.527 115.323 137.009C112.38 137.043 110.54 135.288 121.073 133.049C110.684 134.024 110.684 131.862 118.826 129.394C119.988 129.038 123.066 128.19 125.178 127.825C135.635 126.036 148.967 129.979 156.134 131.701C156.134 131.701 156.134 130.225 156.193 128.207C156.227 126.867 156.286 125.29 156.388 123.73C156.397 123.611 156.405 123.501 156.414 123.39C156.482 122.254 156.634 121.126 156.863 120.007C156.863 120.007 174.487 120.287 177.642 130.98C178.015 132.26 178.184 133.677 178.1 135.262Z" fill="#F4ADA2"/>
<path d="M140.571 141.232C139.57 138.604 136.475 135.873 133.905 134.185C131.157 132.379 126.603 130.09 120.132 129.021C119.759 129.123 119.428 129.216 119.157 129.301C126.043 130.285 130.835 132.676 133.676 134.542C136.187 136.187 139.214 138.858 140.173 141.385C140.376 141.911 140.529 142.436 140.444 142.852C140.58 142.903 140.707 142.954 140.843 143.005C140.978 142.462 140.792 141.8 140.571 141.232ZM122.803 136.212C122.914 136.178 122.982 136.068 122.948 135.949C122.914 135.831 122.803 135.771 122.685 135.805C120.7 136.331 117.961 136.78 115.281 137.026C114.831 137.153 114.551 137.332 114.45 137.518C117.427 137.289 120.581 136.797 122.803 136.212ZM123.779 138.502C123.753 138.383 123.643 138.315 123.524 138.341C121.938 138.671 119.801 138.9 117.808 138.977C117.554 139.078 117.333 139.231 117.231 139.418C119.42 139.375 121.811 139.129 123.609 138.756C123.728 138.731 123.796 138.62 123.779 138.502ZM167.244 136.119C167.32 136.119 167.397 136.076 167.431 136.009C167.49 135.907 167.447 135.78 167.346 135.72C164.505 134.185 159.933 132.362 156.134 131.251V131.692C159.882 132.795 164.352 134.584 167.142 136.093C167.176 136.11 167.21 136.119 167.244 136.119ZM218.181 105.989C215.586 110.772 208.411 119.506 204.153 122.118C204.213 121.957 211.549 101.283 211.557 101.24C213.279 102.351 216.103 104.353 218.181 105.989ZM178.524 136.195C178.379 136.06 178.227 135.924 178.066 135.788C172.85 131.336 161.545 128.258 156.185 128.207C156.219 126.867 156.278 125.29 156.38 123.73C156.388 123.611 156.397 123.501 156.405 123.39C158.051 123.263 173.681 122.313 177.633 130.98C178.303 132.439 178.634 134.16 178.524 136.195Z" fill="#D37E70"/>
<path d="M220.988 98.688C216.942 99.3325 215.119 104.785 212.524 109.873C210.505 113.833 207.817 118.387 204.161 122.118C202.966 121.296 202.287 120.821 201.168 119.998C202.465 123.094 203.966 126.095 205.663 128.987C196.774 129.063 187.004 131.616 178.269 136.11C171.06 126.867 153.988 120.533 149.951 124.272C158.16 114.079 162.995 96.551 170.186 96.8478C170.449 97.6534 170.695 98.5015 170.916 99.3749V99.3919C170.941 99.4936 170.967 99.6039 170.992 99.7141C172.12 100.537 177.641 101.274 182.569 98.069V98.0605C181.95 95.3384 182.323 93.405 183.519 92.1838C183.731 91.9633 183.96 91.7768 184.214 91.6072C187.649 89.3261 193.382 90.7761 203.186 94.9314C211.998 98.6711 218.935 98.1029 220.988 98.688Z" fill="#FFCE3E"/>
<path d="M169.856 114.97C169.381 109.695 169.949 104.259 171.366 99.9176C171.213 99.8498 171.094 99.7904 171.001 99.7226C171.001 99.7141 171.001 99.7056 170.992 99.7056C169.534 104.115 168.957 109.653 169.432 115.021C169.898 120.261 171.603 127.732 176.921 134.55C177.396 135.059 177.845 135.585 178.261 136.119C178.371 136.06 178.481 136.009 178.591 135.949C178.583 135.915 178.566 135.881 178.541 135.848C172.273 128.716 170.356 120.558 169.856 114.97ZM182.561 98.0859C182.433 98.1707 182.315 98.2471 182.187 98.3234C184.876 107.49 194.748 115.462 200.718 120.27C201.007 120.507 201.295 120.736 201.558 120.948C201.566 120.957 201.566 120.957 201.575 120.957C201.456 120.677 201.337 120.405 201.219 120.126C201.142 120.066 201.066 119.998 200.981 119.931C195.036 115.131 185.164 107.168 182.561 98.0859Z" fill="white"/>
<path d="M229.232 156.946C223.329 153.282 212.108 168.937 188.786 168.767C187.776 168.759 186.776 168.674 185.783 168.521C173.011 166.655 155.455 154.766 155.455 154.766V154.758C155.812 154.283 173.842 129.021 205.663 128.987C212.354 139.29 222.515 151.12 229.232 156.946Z" fill="#F73D3B"/>
<path d="M131.929 128.241C126.476 127.342 119.903 130.48 125.432 131.599C127.612 132.04 130.962 132.345 134.77 135.033L131.929 128.241Z" fill="#F4ADA2"/>
<path d="M134.77 135.245C134.728 135.245 134.685 135.228 134.651 135.203C131.386 132.896 128.46 132.362 126.323 131.981C125.992 131.921 125.687 131.862 125.399 131.803C124.288 131.574 122.99 131.124 123.151 130.234C123.423 128.767 128.028 127.376 131.971 128.02C132.09 128.037 132.167 128.148 132.15 128.266C132.133 128.385 132.022 128.461 131.904 128.444C128.13 127.825 123.77 129.216 123.567 130.319C123.49 130.734 124.203 131.133 125.483 131.395C125.772 131.455 126.077 131.506 126.399 131.565C128.571 131.964 131.556 132.498 134.897 134.864C134.991 134.932 135.016 135.067 134.948 135.161C134.906 135.211 134.838 135.245 134.77 135.245Z" fill="#D37E70"/>
</g>
<g clip-path="url(#clip3_23_16185)">
<path d="M106 62.875C102.013 59.9743 97.5645 63.9074 99.0417 67.7296C99.5881 69.1288 100.203 70.4085 99.6735 72.55C101.62 73.5652 105.172 79.0084 105.172 79.0084C105.172 79.0084 112.507 69.8966 116.076 69.8198C119.192 69.7601 120.2 68.4462 120.567 67.2944C121.148 65.4857 120.422 63.532 118.902 62.73C117.493 61.9963 116.221 62.0048 115.137 62.3717C113.318 57.9523 107.665 58.0973 106 62.875Z" fill="#080C16"/>
<path d="M112.541 64.4619C112.533 64.4875 112.524 64.5131 112.524 64.5472C112.524 64.6667 112.618 64.7605 112.738 64.7605C112.823 64.7605 112.9 64.7093 112.934 64.6326C113.514 63.2675 114.462 62.6191 115.308 62.3205C115.248 62.3375 115.188 62.3546 115.128 62.3802C115.077 62.2522 115.017 62.1328 114.966 62.0133C114.078 62.3631 113.13 63.0713 112.541 64.4619Z" fill="#D37E70"/>
<path d="M118.689 86.576C114.667 88.8454 109.092 86.4651 108.972 86.4139C108.938 86.448 108.204 87.0794 106.949 88.5298C106.914 88.5639 106.889 88.6066 106.855 88.6407C105.565 90.1423 103.747 92.4629 101.586 95.8244C101.586 95.8244 93.3298 93.8024 88.5483 85.0147C88.5483 85.0147 95.0375 82.7965 97.6844 80.4929C96.0109 79.4691 94.7045 77.4813 95.2083 75.1009C95.5925 73.2666 97.599 72.0722 99.4946 72.4305C101.433 72.7974 102.671 74.4354 104.122 76.0991C105.762 77.9846 106.317 76.466 107.051 74.5549C107.521 73.3263 108.067 71.9357 109.023 71.1849C111.184 69.4785 116.093 69.8198 116.093 69.8198C116.093 69.8198 116.102 70.4597 116.161 71.2702C116.247 72.3367 116.426 73.6932 116.836 74.2307C117.553 75.1777 118.296 75.0327 118.313 75.6469C118.322 76.1759 117.724 76.7987 117.374 77.0632C117.536 80.6465 120.508 80.5015 120.653 83.3852C120.704 84.6223 119.987 85.8423 118.689 86.576Z" fill="#F4ADA2"/>
<path d="M102.739 81.457C102.85 81.4229 102.918 81.3035 102.884 81.1925C102.85 81.0816 102.731 81.0134 102.62 81.0475C100.681 81.6277 98.8798 81.167 97.6844 80.493C97.5649 80.5868 97.4368 80.7062 97.3087 80.8001C98.1882 81.3291 99.3921 81.7386 100.792 81.7386C101.458 81.7386 102.116 81.6447 102.739 81.457ZM108.972 86.4139C108.929 86.4481 108.204 87.0794 106.949 88.5298C105.079 86.7893 105.437 84.2298 106.001 83.88C106.001 83.88 106.795 85.2536 108.972 86.4139Z" fill="#D37E70"/>
<path opacity="0.52" d="M109.254 81.6874C110.56 81.6874 111.619 80.6293 111.619 79.3241C111.619 78.0189 110.56 76.9608 109.254 76.9608C107.948 76.9608 106.889 78.0189 106.889 79.3241C106.889 80.6293 107.948 81.6874 109.254 81.6874Z" fill="#E57281"/>
<path d="M56.2218 186.943C54.7703 179.623 52.3112 166.142 46.1892 170.093C40.0501 174.051 50.9963 188.7 60.8838 198.409C60.8838 198.401 56.9561 190.663 56.2218 186.943Z" fill="#080C16"/>
<path d="M60.8838 198.401C59.5518 198.921 58.4162 199.339 57.4513 199.698C57.144 199.808 56.8622 199.911 56.589 200.005C52.9858 201.284 52.2002 201.327 52.1149 201.327H52.1063C52.1063 201.327 45.5147 196.882 47.2394 188.931H47.248L47.2821 188.914C47.47 188.803 48.3153 188.316 49.5363 187.574C49.7326 187.455 49.9461 187.327 50.1596 187.199C50.3559 187.079 50.5523 186.96 50.7572 186.832C53.4468 185.194 57.1952 182.839 60.2349 180.646L60.8838 198.401Z" fill="#F4ADA2"/>
<path d="M60.884 198.401C60.884 198.401 55.1803 193.623 50.766 186.823C53.4556 185.185 57.2039 182.83 60.2436 180.638L60.884 198.401Z" fill="#D37E70"/>
<path d="M57.4513 199.698C57.144 199.808 56.8622 199.911 56.589 200.005C52.9858 201.284 52.2002 201.327 52.1149 201.327H52.1063C52.1063 201.327 45.5147 196.882 47.2394 188.931H47.248L47.2821 188.914C47.47 188.803 48.3153 188.316 49.5363 187.574C49.7326 187.455 49.9461 187.327 50.1596 187.199L57.4513 199.698Z" fill="#347AFF"/>
<path d="M48.0165 188.478L54.8643 200.593C55.1119 200.508 55.3937 200.423 55.6925 200.32L48.7508 188.043C48.469 188.205 48.2214 188.35 48.0165 188.478ZM47.2993 189.033C47.2993 189.033 37.1984 194.553 31.119 197.215C31.119 197.215 42.3812 214.705 46.898 220.336C49.3485 223.39 51.6112 224.124 52.9858 224.277L52.9944 224.269C52.9944 224.26 53.0029 224.252 53.0115 224.243C53.3103 223.791 56.1365 219.244 55.1375 211.377C54.9838 210.149 54.2837 206.344 52.3967 202.684C51.1074 200.175 49.9803 198.136 48.913 196.583C46.4967 193.06 49.024 191.678 47.2993 189.033Z" fill="white"/>
<path d="M47.2397 188.931C49.0926 191.729 46.5567 193.086 49.7842 197.326C50.8002 198.657 52.5079 201.754 53.6008 204.945C53.6435 205.064 53.6777 205.175 53.7204 205.286C53.7289 205.32 53.746 205.346 53.7545 205.38C53.9765 206.062 54.1814 206.719 54.3522 207.368L54.4547 207.751C54.4974 207.939 54.5486 208.118 54.5913 208.297C54.6254 208.443 54.6596 208.579 54.6852 208.724C54.7108 208.844 54.7364 208.954 54.7621 209.074C54.7791 209.142 54.7962 209.219 54.8047 209.287L54.9072 209.799V209.808C54.9157 209.867 54.9243 209.927 54.9414 209.987C54.9755 210.183 55.0097 210.379 55.0353 210.567C55.0438 210.61 55.0438 210.652 55.0524 210.695C55.0865 210.925 55.1207 211.156 55.1463 211.386C55.1719 211.608 55.1975 211.83 55.2231 212.043C55.2317 212.128 55.2402 212.205 55.2487 212.29C55.2744 212.538 55.2914 212.785 55.3085 213.024C55.3085 213.084 55.317 213.135 55.317 213.195C55.317 213.254 55.3256 213.306 55.3256 213.365C55.3341 213.476 55.3341 213.579 55.3427 213.69C55.3512 213.8 55.3512 213.92 55.3512 214.031V214.193C55.3597 214.568 55.3597 214.935 55.3512 215.293C55.3512 215.447 55.3427 215.601 55.3341 215.746C55.3341 215.848 55.3256 215.942 55.317 216.044C55.317 216.095 55.3085 216.138 55.3085 216.189C55.3 216.343 55.2914 216.496 55.2744 216.65C55.2744 216.684 55.2658 216.727 55.2658 216.761C55.2487 216.991 55.2231 217.222 55.1975 217.452C55.189 217.495 55.189 217.546 55.1804 217.588C55.1719 217.674 55.1548 217.759 55.1463 217.844C55.1377 217.887 55.1377 217.938 55.1292 217.981C55.1207 218.066 55.1036 218.152 55.0951 218.237C55.0865 218.28 55.078 218.322 55.078 218.365C55.078 218.408 55.0609 218.45 55.0609 218.493C55.0609 218.536 55.0438 218.578 55.0438 218.621C55.0182 218.74 55.0011 218.868 54.9755 218.988L54.9499 219.107C54.9414 219.15 54.9328 219.184 54.9243 219.227L54.8731 219.457C54.8645 219.491 54.856 219.534 54.8474 219.568C54.8304 219.645 54.8133 219.721 54.7962 219.79C54.7791 219.858 54.7621 219.935 54.745 220.011C54.7279 220.088 54.7108 220.157 54.6937 220.225C54.6852 220.267 54.6767 220.302 54.6596 220.344C54.6254 220.481 54.5913 220.609 54.5486 220.737C54.5315 220.805 54.5059 220.865 54.4888 220.933C54.4718 221.001 54.4461 221.061 54.4291 221.121C54.412 221.18 54.3864 221.24 54.3693 221.308C54.19 221.871 53.9936 222.349 53.8228 222.759C53.8058 222.793 53.7972 222.818 53.7801 222.853C46.6677 220.148 44.5501 212.802 43.7988 208.989C43.1498 205.695 41.2458 205.857 40.5115 203.306C39.8967 201.182 41.0579 199.894 39.8284 197.488C38.6757 195.235 36.5326 194.647 36.5326 194.647C36.5326 194.647 41.8691 192.36 47.2397 188.931Z" fill="#080C16"/>
<path d="M48.6313 199.39C48.5715 199.39 48.5117 199.365 48.469 199.314C46.8467 197.462 45.7709 197.104 44.4048 196.652C44.0205 196.524 43.6278 196.396 43.1923 196.217C40.6479 195.21 39.6489 193.299 39.6062 193.213C39.555 193.111 39.5976 192.983 39.7001 192.932C39.8026 192.881 39.9306 192.923 39.9819 193.026C39.9989 193.051 40.9638 194.886 43.346 195.824C43.7729 195.995 44.1657 196.123 44.5414 196.251C45.9673 196.729 47.0943 197.104 48.7935 199.041C48.8703 199.126 48.8618 199.262 48.7764 199.339C48.7252 199.365 48.6825 199.39 48.6313 199.39Z" fill="white"/>
<path d="M53.7715 223.032C53.7373 223.032 53.7117 223.023 53.6861 223.015C50.544 221.82 48.0252 219.593 46.215 216.411C45.0282 214.338 44.1487 211.838 43.5852 208.997C43.2437 207.257 42.5264 206.506 41.8434 205.789C41.2542 205.175 40.648 204.535 40.3064 203.341C40.0332 202.394 40.1015 201.617 40.1613 200.858C40.2467 199.851 40.3235 198.896 39.6405 197.565C38.5475 195.432 36.43 194.971 36.4129 194.962C36.2934 194.937 36.2251 194.826 36.2507 194.707C36.2763 194.587 36.3873 194.519 36.5069 194.544C36.6008 194.561 38.8464 195.056 40.0332 197.368C40.7675 198.802 40.6821 199.86 40.5968 200.892C40.537 201.643 40.4772 202.359 40.7334 203.23C41.0493 204.33 41.5957 204.902 42.1764 205.508C42.9107 206.275 43.662 207.069 44.0292 208.929C44.5842 211.727 45.4466 214.176 46.6078 216.215C48.3752 219.312 50.8172 221.479 53.8739 222.639C53.9849 222.682 54.0447 222.801 54.002 222.912C53.9423 222.981 53.8569 223.032 53.7715 223.032Z" fill="#080C16"/>
<path d="M37.2839 202.138C36.9509 202.129 36.6349 202.044 36.3361 201.899C35.7299 201.609 35.1493 201.08 34.6967 200.406C34.2442 199.732 33.971 198.998 33.9283 198.324C33.8856 197.599 34.1076 197.036 34.5601 196.729C35.0127 196.421 35.6274 196.43 36.2763 196.746C36.8826 197.036 37.4632 197.565 37.9157 198.239C38.8976 199.689 38.9489 201.302 38.0523 201.907C37.8303 202.061 37.5656 202.146 37.2839 202.138ZM35.3457 197.061C35.1834 197.061 35.0212 197.104 34.876 197.189C34.5943 197.385 34.4491 197.778 34.4833 198.298C34.5174 198.87 34.7565 199.51 35.1578 200.107C35.5591 200.704 36.0629 201.156 36.5837 201.412C37.0533 201.643 37.4717 201.66 37.7535 201.464C38.3768 201.046 38.2487 199.706 37.4717 198.554C37.0704 197.966 36.5666 197.505 36.0458 197.249C35.8323 197.13 35.5847 197.07 35.3457 197.061Z" fill="#080C16"/>
<path d="M52.9944 224.491H52.9687C50.245 224.192 48.0762 222.144 46.7357 220.472C42.2616 214.901 31.1788 197.428 31.0678 197.249C31.008 197.147 31.0336 197.019 31.1361 196.959C31.1446 196.95 31.1531 196.95 31.1617 196.942C39.7342 193.111 45.25 189.971 46.9662 188.845C47.0687 188.786 47.1968 188.811 47.2651 188.905C47.3249 188.999 47.2992 189.135 47.2053 189.195C45.4976 190.321 40.0416 193.427 31.5715 197.223C32.8438 199.22 42.8849 214.969 47.0772 220.199C49.3399 223.023 51.4745 223.859 52.9004 224.047C53.3786 223.288 55.8974 218.86 54.9411 211.403C54.9326 211.335 54.924 211.249 54.9155 211.164C54.7533 209.85 54.3776 206.77 52.0978 202.76C52.0381 202.658 52.0722 202.53 52.1747 202.47C52.2771 202.411 52.4052 202.445 52.465 202.547C54.7874 206.634 55.1716 209.773 55.3339 211.113C55.3424 211.198 55.3509 211.275 55.3595 211.343C56.3585 219.201 53.5664 223.791 53.2078 224.337C53.2078 224.337 53.2078 224.346 53.1993 224.346C53.1907 224.354 53.1822 224.371 53.1822 224.371L53.1737 224.38C53.131 224.456 53.0627 224.491 52.9944 224.491Z" fill="#080C16"/>
<path d="M54.3519 207.444C54.1982 207.444 54.0446 207.385 53.925 207.282C51.0903 204.757 47.2651 205.175 47.2224 205.183C46.8723 205.226 46.5564 204.97 46.5137 204.62C46.471 204.271 46.7186 203.963 47.0687 203.912C47.248 203.887 51.5001 203.409 54.7789 206.327C55.0435 206.566 55.0692 206.967 54.8301 207.231C54.7106 207.368 54.5312 207.453 54.3519 207.444ZM55.0948 211.019C54.9325 211.019 54.7789 210.959 54.6593 210.848C51.6965 208.093 48.0165 208.494 47.9823 208.502C47.6322 208.545 47.3163 208.297 47.2736 207.948C47.2309 207.598 47.4785 207.282 47.8286 207.24C47.9994 207.214 52.1234 206.753 55.5302 209.919C55.7864 210.157 55.8035 210.567 55.5644 210.823C55.4449 210.942 55.2741 211.019 55.0948 211.019ZM55.479 214.483C55.3168 214.483 55.1545 214.423 55.035 214.304C52.4052 211.804 49.2374 212.068 49.2033 212.068C48.8532 212.103 48.5373 211.838 48.5117 211.488C48.4775 211.139 48.7337 210.831 49.0838 210.797C49.2374 210.78 52.8577 210.456 55.923 213.374C56.1792 213.621 56.1877 214.022 55.9486 214.278C55.8205 214.415 55.6498 214.483 55.479 214.483Z" fill="#FFCE3E"/>
<path d="M88.0191 204.407C83.4169 198.529 74.9212 187.369 71.2411 193.657C67.5525 199.962 84.1512 208.332 97.3515 212.538C97.343 212.538 90.35 207.393 88.0191 204.407Z" fill="#080C16"/>
<path d="M97.343 212.538C96.3867 213.596 95.567 214.491 94.8669 215.234C94.6449 215.473 94.4314 215.686 94.235 215.899C91.5967 218.663 90.9136 219.056 90.8368 219.09H90.8282C90.8282 219.09 82.9387 218.092 80.8981 210.217L80.9237 210.183C81.0432 210.004 81.5726 209.185 82.3325 207.973C82.4606 207.777 82.5887 207.572 82.7253 207.35C82.8448 207.163 82.9644 206.958 83.0924 206.753C84.7489 204.083 87.0372 200.286 88.7619 196.967L97.343 212.538Z" fill="#F4ADA2"/>
<path d="M97.3427 212.538C97.3427 212.538 90.0936 210.84 83.0836 206.762C84.7401 204.091 87.0284 200.295 88.7531 196.976L97.3427 212.538Z" fill="#D37E70"/>
<path d="M94.8669 215.234C94.6449 215.473 94.4314 215.686 94.235 215.899C91.5967 218.663 90.9136 219.056 90.8368 219.09H90.8282C90.8282 219.09 82.9387 218.092 80.8981 210.217L80.9237 210.183C81.0432 210.004 81.5726 209.185 82.3325 207.973C82.4606 207.777 82.5887 207.572 82.7253 207.35L94.8669 215.234Z" fill="#347AFF"/>
<path d="M93.569 216.59L81.8372 208.75C81.6664 209.023 81.5127 209.262 81.3761 209.466L92.9542 217.196C93.1506 217.017 93.3555 216.812 93.569 216.59ZM81.0004 210.294C81.0004 210.294 74.4771 219.764 70.2506 224.883C70.2506 224.883 88.1898 235.428 94.7643 238.414C98.3334 240.035 100.681 239.677 101.979 239.191V239.148C102.039 238.611 102.517 233.278 98.0772 226.709C97.3856 225.685 95.0461 222.597 91.7076 220.182C89.4278 218.527 87.5067 217.213 85.8417 216.3C82.0934 214.244 83.7242 211.872 81.0004 210.294Z" fill="white"/>
<path d="M80.8894 210.226C83.8095 211.889 82.1531 214.244 86.9431 216.573C88.4544 217.307 91.3746 219.295 93.7909 221.658L94.0471 221.914C94.0727 221.94 94.0983 221.957 94.1154 221.982C94.6191 222.486 95.0973 222.989 95.5413 223.484C95.6267 223.586 95.7206 223.68 95.806 223.782C95.9341 223.928 96.0536 224.064 96.1731 224.209C96.2671 224.32 96.361 224.431 96.4464 224.542C96.5232 224.636 96.5915 224.721 96.6684 224.815C96.7111 224.875 96.7623 224.926 96.805 224.985C96.916 225.122 97.0184 225.258 97.1209 225.395L97.1294 225.404C97.1636 225.455 97.1977 225.497 97.2404 225.549C97.36 225.711 97.4795 225.864 97.5905 226.026L97.6674 226.129C97.804 226.325 97.9406 226.513 98.0687 226.7C98.1967 226.888 98.3163 227.067 98.4358 227.255L98.5639 227.46C98.7005 227.673 98.8286 227.878 98.9481 228.091L99.0335 228.236C99.0591 228.287 99.0933 228.33 99.1189 228.381C99.1701 228.475 99.2213 228.569 99.2811 228.663C99.3409 228.765 99.3921 228.859 99.4433 228.961C99.469 229.012 99.4946 229.055 99.5202 229.106C99.6995 229.439 99.8617 229.772 100.015 230.096C100.084 230.232 100.143 230.369 100.203 230.505C100.246 230.599 100.289 230.685 100.323 230.778C100.34 230.821 100.365 230.872 100.383 230.915C100.442 231.06 100.502 231.205 100.562 231.342C100.579 231.376 100.587 231.41 100.605 231.444C100.69 231.666 100.775 231.879 100.852 232.092C100.869 232.135 100.886 232.178 100.895 232.22C100.92 232.297 100.955 232.382 100.98 232.459C100.997 232.502 101.014 232.545 101.023 232.596C101.049 232.681 101.074 232.758 101.108 232.843C101.117 232.886 101.134 232.928 101.151 232.963C101.168 232.997 101.177 233.039 101.185 233.082C101.194 233.125 101.211 233.159 101.219 233.201L101.322 233.56L101.356 233.679C101.364 233.713 101.373 233.756 101.39 233.799C101.407 233.875 101.433 233.952 101.45 234.029C101.458 234.063 101.467 234.106 101.475 234.14C101.493 234.217 101.51 234.294 101.527 234.362C101.544 234.43 101.561 234.507 101.578 234.584C101.595 234.66 101.612 234.729 101.629 234.797C101.638 234.84 101.646 234.874 101.655 234.916C101.68 235.053 101.706 235.189 101.732 235.317C101.74 235.386 101.757 235.454 101.766 235.514C101.774 235.573 101.791 235.642 101.8 235.71C101.808 235.778 101.817 235.838 101.834 235.897C101.919 236.478 101.971 236.998 101.996 237.442C101.996 237.476 101.996 237.51 102.005 237.544C94.4313 238.338 89.2314 232.724 86.8407 229.661C84.7744 227.016 83.1435 228.014 81.3419 226.069C79.8392 224.448 80.2917 222.776 78.1059 221.189C76.0652 219.696 73.8794 220.139 73.8794 220.139C73.8794 220.139 77.6448 215.712 80.8894 210.226Z" fill="#080C16"/>
<path d="M86.7552 218.954C86.7296 218.954 86.704 218.945 86.6784 218.937C84.3901 218.015 83.6046 218.135 82.0335 218.365C81.6151 218.425 81.137 218.493 80.5734 218.553C77.8497 218.834 76.0908 217.537 76.0139 217.486C75.92 217.418 75.9029 217.281 75.9712 217.188C76.0395 217.094 76.1762 217.077 76.2701 217.145C76.2957 217.162 77.9863 218.39 80.5307 218.126C81.0857 218.066 81.5639 217.998 81.9737 217.938C83.5704 217.708 84.4499 217.571 86.8406 218.536C86.9516 218.578 87.0028 218.706 86.9601 218.817C86.9175 218.902 86.8406 218.954 86.7552 218.954Z" fill="white"/>
<path d="M100.57 237.826C97.7357 237.826 94.9777 236.955 92.365 235.215C90.3756 233.893 88.4544 232.067 86.6784 229.78C85.5855 228.381 84.6121 228.031 83.6729 227.699C82.8703 227.417 82.0421 227.118 81.1883 226.205C80.5223 225.489 80.2234 224.755 79.9331 224.056C79.5489 223.117 79.1903 222.23 77.9864 221.351C76.0567 219.943 73.9562 220.481 73.9306 220.481C73.8196 220.506 73.7001 220.438 73.6745 220.327C73.6488 220.216 73.7086 220.097 73.8196 220.071C73.9135 220.046 76.1335 219.474 78.234 221.001C79.5403 221.948 79.9416 222.938 80.3259 223.885C80.6076 224.584 80.8809 225.25 81.4956 225.907C82.2726 226.743 83.0155 227.007 83.8095 227.289C84.8085 227.647 85.8417 228.014 87.0114 229.507C88.7618 231.76 90.6488 233.551 92.6041 234.848C95.584 236.819 98.7346 237.646 101.988 237.305C102.107 237.297 102.21 237.382 102.218 237.501C102.227 237.621 102.141 237.723 102.022 237.732C101.535 237.8 101.049 237.826 100.57 237.826Z" fill="#080C16"/>
<path d="M76.9531 226.649C76.3042 226.649 75.5869 226.444 74.9039 226.06C74.2037 225.668 73.6402 225.139 73.3072 224.576C72.9486 223.97 72.8974 223.381 73.1535 222.929C73.4097 222.477 73.939 222.213 74.6392 222.196C75.2966 222.179 76.048 222.392 76.7482 222.776C77.4483 223.16 78.0118 223.697 78.3448 224.26C78.7035 224.866 78.7547 225.455 78.4985 225.907C78.2424 226.359 77.713 226.624 77.0129 226.641C76.9958 226.649 76.9787 226.649 76.9531 226.649ZM74.699 222.622H74.6477C74.1013 222.631 73.7085 222.818 73.5292 223.134C73.3499 223.45 73.4011 223.885 73.6829 224.354C73.9817 224.857 74.494 225.335 75.1259 225.685C75.7577 226.035 76.4322 226.223 77.0129 226.214C77.5593 226.205 77.9521 226.018 78.1314 225.702C78.3107 225.386 78.2595 224.951 77.9777 224.482C77.6788 223.979 77.1665 223.501 76.5347 223.151C75.9285 222.81 75.2796 222.622 74.699 222.622Z" fill="#080C16"/>
<path d="M99.5885 239.813C97.7784 239.813 96.011 239.216 94.6704 238.611C88.1642 235.65 70.3872 225.045 70.2079 224.943C70.1055 224.883 70.0713 224.755 70.1311 224.653C70.1396 224.644 70.1396 224.636 70.1482 224.627C76.0738 217.35 79.5831 212.06 80.5992 210.285C80.6589 210.183 80.787 210.149 80.8895 210.209C80.9919 210.268 81.0261 210.396 80.9663 210.499C79.9502 212.273 76.4837 217.503 70.6263 224.712C72.6585 225.924 88.7277 235.462 94.8327 238.235C96.6769 239.071 99.358 239.882 101.766 239.046C101.851 238.15 102.099 233.065 97.8894 226.837C97.8467 226.777 97.804 226.709 97.7528 226.641C97.0185 225.54 95.2937 222.955 91.4515 220.404C91.349 220.344 91.3234 220.208 91.3831 220.105C91.4429 220.003 91.5795 219.977 91.682 220.037C91.682 220.037 91.6905 220.037 91.6905 220.046C95.6011 222.648 97.36 225.276 98.1114 226.402C98.1626 226.47 98.2053 226.538 98.2395 226.598C102.679 233.159 102.253 238.517 102.184 239.165V239.174C102.184 239.191 102.184 239.199 102.176 239.208V239.225C102.167 239.302 102.116 239.37 102.039 239.395C101.262 239.677 100.425 239.822 99.5885 239.813Z" fill="#080C16"/>
<path d="M87.8566 224.849C87.5065 224.849 87.2162 224.559 87.2162 224.209C87.2162 223.996 87.3186 223.8 87.498 223.68C87.6516 223.578 91.2292 221.232 95.4728 222.366C95.8143 222.46 96.0107 222.81 95.9253 223.151C95.8314 223.492 95.4899 223.689 95.1484 223.603C91.4768 222.622 88.2493 224.721 88.2152 224.747C88.1042 224.815 87.9846 224.849 87.8566 224.849ZM90.0253 227.46C89.6752 227.46 89.3849 227.17 89.3849 226.82C89.3849 226.606 89.4874 226.41 89.6667 226.291C89.8119 226.197 93.2784 223.919 97.7526 225.216C98.0941 225.31 98.2905 225.668 98.1966 226.009C98.1026 226.351 97.744 226.547 97.4025 226.453H97.3939C93.509 225.327 90.4095 227.349 90.3754 227.366C90.2815 227.426 90.1534 227.46 90.0253 227.46ZM92.7491 230.104C92.399 230.104 92.1087 229.814 92.1087 229.465C92.1087 229.243 92.2197 229.047 92.4075 228.927C92.5356 228.842 95.618 226.922 99.6737 228.151C100.015 228.253 100.203 228.611 100.101 228.953C99.9982 229.294 99.6395 229.482 99.298 229.379C95.8229 228.33 93.1162 229.994 93.0906 230.011C92.9881 230.07 92.8686 230.104 92.7491 230.104Z" fill="#FFCE3E"/>
<path d="M70.7799 142.484C60.3289 139.182 38.9744 134.814 38.0693 140.607C37.0105 147.441 70.7799 142.484 70.7799 142.484Z" fill="#080C16"/>
<path d="M123.496 163.523C119.304 142.578 85.2268 136.7 74.0159 135.42C62.805 134.14 41.0834 138.355 41.0834 138.355C40.5113 142.586 42.0226 156.775 59.3555 165.665C53.908 167.064 48.0678 168.651 46.1893 170.093C49.5022 168.105 53.686 172.959 54.2069 182.745C54.7277 192.531 60.8839 198.409 60.8839 198.409C64.5298 197.147 67.8512 195.671 71.0104 194.109C71.6081 192.753 73.0426 192.164 74.4685 192.309C77.3971 192.608 81.0686 195.901 84.3218 201.575C89.1972 210.072 97.3428 212.555 97.3428 212.555C117.323 191.55 125.451 173.292 123.496 163.523Z" fill="#21AA53"/>
<path d="M91.7929 173.036C78.5071 172.447 67.2962 169.811 58.459 165.195C58.7493 165.358 59.0481 165.511 59.3555 165.665C59.1506 165.716 58.9542 165.767 58.7493 165.818C67.4841 170.263 78.4644 172.831 91.4086 173.446L91.7929 173.036Z" fill="#92DDA8"/>
<path d="M81.4358 183.172C87.1053 178.326 93.5347 172.823 97.5478 166.373V166.364C97.6075 166.262 97.5734 166.134 97.4795 166.074C97.3855 166.014 97.2489 166.049 97.1892 166.142C95.6864 168.565 93.8336 170.852 91.8014 173.028C91.8271 173.028 91.8612 173.028 91.8868 173.036C92.0064 173.036 92.1003 173.138 92.0917 173.258C92.0917 173.377 91.9893 173.471 91.8697 173.463H91.8612C91.7075 173.454 91.5624 173.446 91.4087 173.437C88.1726 176.841 84.5353 179.955 81.1626 182.847C76.0396 187.233 71.574 191.055 70.4811 194.357C70.6604 194.271 70.8312 194.186 71.0105 194.092C71.0532 193.998 71.1044 193.905 71.1471 193.819C72.5474 190.782 76.7056 187.216 81.4358 183.172Z" fill="#92DDA8"/>
<path d="M91.8614 173.463C91.9894 173.463 92.0833 173.369 92.0919 173.258C92.0919 173.138 91.998 173.045 91.887 173.036C91.8614 173.036 91.8272 173.036 91.8016 173.028L91.4174 173.437C91.5625 173.446 91.7162 173.454 91.8614 173.463Z" fill="#92DDA8"/>
<path d="M58.6042 104.996C61.8402 97.4795 62.1391 79.6739 57.9296 80.4247C53.6348 81.1926 55.0693 98.2303 58.6042 104.996Z" fill="#080C16"/>
<path d="M53.7716 80.8939C53.3959 82.114 52.9946 83.2743 52.5848 84.3322C52.5848 84.3322 54.8218 84.3322 57.0589 84.3919C58.4165 84.426 59.7656 84.4772 60.6109 84.5711C62.6259 92.6335 61.8404 99.6807 61.3281 102.692C61.1573 103.699 61.0122 104.254 61.0122 104.254C61.0122 104.254 60.4486 104.288 59.4923 104.296H58.6983C54.3522 104.279 44.8404 103.75 38.3769 99.8172C23.9385 91.0296 42.3643 68.4889 45.4467 59.4709C47.2056 54.3177 45.7028 49.2585 44.7721 46.6222C43.8671 44.0712 46.1981 45.0438 48.2302 47.9787C48.2302 47.9787 47.2568 44.822 46.8726 42.5696C46.4884 40.3173 46.7189 38.8157 48.2302 40.5391C46.7274 36.0344 51.1589 39.3361 53.191 44.0712C51.7651 37.681 52.8836 37.4677 54.3949 39.5665C56.1282 41.9724 57.2553 46.5539 58.0066 47.6033C58.758 48.6527 59.2874 47.6801 60.9353 46.7757C63.0016 45.6496 63.0528 46.716 62.2161 48.8831C61.5501 50.5894 60.2266 53.5072 59.6631 55.4951C58.4336 59.778 56.5124 72.0636 53.7716 80.8939Z" fill="#F4ADA2"/>
<path d="M44.8147 84.7417C44.8147 84.8612 44.9086 84.955 45.0282 84.955H45.0538C45.0965 84.9465 49.1437 84.3663 52.5761 84.3322C52.6273 84.1957 52.6786 84.0677 52.7298 83.9312C49.2717 83.9653 45.0282 84.5284 44.9855 84.537C44.8915 84.5455 44.8147 84.6393 44.8147 84.7417ZM50.3647 47.39C50.3817 47.39 50.3988 47.39 50.4159 47.3815C50.5269 47.3559 50.6037 47.2365 50.5696 47.1255C50.117 45.3339 49.229 42.8426 48.2301 40.5391C48.1617 40.4452 47.7263 39.9931 47.5043 39.8907C48.5716 42.2625 49.6816 45.2998 50.1597 47.2279C50.1853 47.3218 50.2707 47.39 50.3647 47.39ZM53.5239 46.4857C53.5409 46.4857 53.558 46.4857 53.5665 46.4771C53.6775 46.4515 53.7544 46.3406 53.7288 46.2212C53.7288 46.2041 53.5665 45.4533 53.1909 44.0627C53.1482 43.9432 52.6188 42.7915 52.2602 42.2454C52.8493 44.1565 53.3189 46.2809 53.3275 46.3065C53.336 46.4174 53.4214 46.4857 53.5239 46.4857ZM36.8398 90.9869C36.763 90.9016 36.6264 90.8931 36.541 90.9784C36.4556 91.0552 36.4471 91.1917 36.5325 91.277C37.5229 92.3434 37.7535 93.4184 37.7535 93.427C37.7705 93.5294 37.8645 93.5976 37.9584 93.5976H38.0011C38.1206 93.572 38.1889 93.4611 38.1718 93.3502C38.1633 93.2905 37.9242 92.1387 36.8398 90.9869ZM61.3194 102.684C60.6449 103.29 60.0301 103.836 59.4837 104.288C59.1592 104.552 58.8689 104.791 58.6042 104.996C58.6384 104.766 58.6725 104.527 58.6981 104.288C59.4666 97.9232 58.792 89.1953 57.0588 84.3919C58.4164 84.426 59.7654 84.4772 60.6107 84.5711C62.6172 92.625 61.8403 99.6636 61.3194 102.684Z" fill="#D37E70"/>
<path d="M85.7479 86.286C77.3973 81.0987 65.6656 79.0682 57.9213 80.4247C62.1307 80.2029 61.533 95.9012 58.5958 104.996C64.7691 101.762 85.7479 86.286 85.7479 86.286Z" fill="#F73D3B"/>
<path d="M73.2304 136.299C73.0341 139.251 73.7854 142.552 75.7407 144.958L80.7015 146.238L75.8176 132.792L73.2304 136.299Z" fill="#080C16"/>
<path d="M102.064 95.8244L74.7672 135.343C72.2825 138.722 70.7798 143.158 70.7798 143.158C70.7798 143.158 39.9477 133.688 38.0692 140.607C45.4378 99.5869 82.2127 87.4889 88.5311 85.0147C93.7566 94.0327 101.936 95.7988 102.064 95.8244Z" fill="#F73D3B"/>
<path d="M102.363 125.353C93.4152 120.396 70.4811 119.568 69.8066 123.621C69.132 127.682 92.6638 129.789 102.363 125.353Z" fill="#080C16"/>
<path d="M135.586 141.443C135.364 142.416 133.853 143.397 132.538 143.133C132.35 144.148 131.368 145.496 129.533 145.385C128.363 148.431 122.574 147.603 120.815 143.457C113.515 143.499 95.5157 155.631 81.231 147.663C73.3244 143.252 74.46 131.683 75.7579 125.438C76.0396 124.039 76.3897 122.665 76.8166 121.3V121.308C76.8166 121.308 90.8623 118.578 102.372 125.344L100.195 129.704C128.593 125.276 138.754 138.5 140.265 141.435C141.828 144.523 138.857 144.335 135.586 141.443Z" fill="#F4ADA2"/>
<path d="M129.635 143.167C129.208 142.339 128.559 141.648 127.765 141.17H127.757C127.654 141.111 127.526 141.145 127.466 141.247C127.407 141.349 127.441 141.477 127.543 141.537C128.892 142.365 129.814 144.003 129.533 145.385C129.678 145.393 129.823 145.393 129.96 145.385C130.122 144.668 130.011 143.917 129.635 143.167ZM130.907 138.935C130.805 138.867 130.668 138.892 130.608 138.995C130.549 139.097 130.574 139.225 130.677 139.293C131.496 139.839 132.658 141.034 132.538 143.133H132.555C132.683 143.158 132.82 143.175 132.956 143.175C133.144 140.82 131.787 139.515 130.907 138.935ZM133.588 137.194C133.486 137.135 133.358 137.177 133.298 137.28C133.238 137.382 133.281 137.51 133.383 137.57C134.681 138.295 135.808 140.044 135.586 141.443C135.706 141.546 135.945 141.759 135.945 141.75C136.338 140.087 135.023 137.996 133.588 137.194ZM125.622 144.702C125.656 144.728 125.699 144.736 125.733 144.736C125.801 144.736 125.87 144.702 125.912 144.643C125.972 144.54 125.946 144.412 125.853 144.344C124.811 143.679 122.932 143.115 120.815 143.457C120.875 143.585 120.917 143.687 120.994 143.849C122.898 143.61 124.7 144.105 125.622 144.702ZM91.9637 132.528C91.9637 132.647 92.0576 132.741 92.1771 132.741C92.2113 132.741 92.2369 132.732 92.2625 132.724C92.3052 132.707 96.3183 130.813 100.195 129.704L100.434 129.217C96.6427 130.241 92.1259 132.314 92.0832 132.331C92.0064 132.366 91.9637 132.442 91.9637 132.528ZM102.363 125.353C95.3876 123.416 83.0581 123.783 75.7578 125.446C76.0396 124.047 76.3897 122.674 76.8166 121.308V121.317C76.808 121.317 90.8622 118.587 102.363 125.353Z" fill="#D37E70"/>
<path d="M102.363 125.353C93.4065 121.368 74.0927 120.114 70.3699 122.93C70.1223 123.1 69.9345 123.331 69.8149 123.604C69.8149 123.612 69.8064 123.621 69.8064 123.621C70.8652 118.877 73.0424 114.133 75.8601 109.902L75.9626 109.748C76.0053 109.688 76.0394 109.629 76.0821 109.569C82.3493 100.329 91.6561 93.6061 98.965 94.775C100.049 94.9456 101.091 95.304 102.056 95.8244C107.7 98.9043 108.904 111.531 102.363 125.353Z" fill="#F73D3B"/>
<path d="M84.8855 86.3371C84.8343 86.2262 84.8855 86.1068 84.9965 86.0556C85.1075 86.0044 85.227 86.0556 85.2782 86.1665V86.175C85.2868 86.1921 85.2953 86.2092 85.3039 86.2347L85.5344 86.158C85.3807 86.0641 85.2185 85.9703 85.0562 85.8764C80.5053 87.4804 69.875 91.9083 59.6545 100.977C59.6033 101.216 59.5521 101.455 59.4923 101.686C69.5676 92.5908 80.1552 88.0776 84.894 86.3798C84.894 86.3627 84.894 86.3457 84.8855 86.3371Z" fill="#FCB6B1"/>
<path d="M85.3039 86.2348C85.1758 86.2774 85.0392 86.3286 84.9026 86.3798C86.1834 89.3829 89.0267 93.2563 92.5786 95.3466C92.7579 95.2783 92.9287 95.2186 93.108 95.1589C89.4963 93.171 86.5932 89.255 85.3039 86.2348ZM85.2783 86.175C85.2783 86.1665 85.2783 86.1665 85.2783 86.175C85.2271 86.0556 85.1075 86.0044 84.9965 86.0556C84.8855 86.1068 84.8343 86.2262 84.8855 86.3371C84.8941 86.3457 84.8941 86.3627 84.9026 86.3713C85.0392 86.3201 85.1758 86.2774 85.3039 86.2262L85.2783 86.175Z" fill="#FCB6B1"/>
<path d="M93.0991 95.1589C93.1077 95.1589 93.1077 95.1589 93.0991 95.1589C93.2101 95.2186 93.2528 95.3466 93.193 95.449C93.1504 95.5087 93.082 95.5514 93.0052 95.5514C92.971 95.5514 92.9369 95.5428 92.9027 95.5258C92.7917 95.466 92.6893 95.4063 92.5783 95.3381C92.0574 95.5258 91.5281 95.7476 90.9901 95.995C86.4221 98.0938 81.7516 102.044 77.841 107.12C77.2263 107.922 76.6371 108.741 76.0821 109.569C76.0394 109.629 76.0053 109.688 75.9626 109.748L75.8601 109.902C72.9827 114.253 70.8822 118.996 69.8064 123.604C69.9259 123.33 70.1138 123.1 70.3614 122.93C73.2303 111.813 81.948 100.568 91.1524 96.3363C93.97 95.0395 96.6169 94.519 98.9735 94.775C99.0418 94.7835 99.1016 94.792 99.1699 94.8006C98.8711 94.6641 98.5637 94.519 98.2392 94.3484C96.6255 94.2887 94.9093 94.5531 93.0991 95.1589Z" fill="#FCB6B1"/>
<path d="M93.0054 95.5514C93.0822 95.5514 93.1506 95.5087 93.1932 95.449C93.253 95.3466 93.2103 95.2186 93.1079 95.1589H93.0993C92.9286 95.2186 92.7493 95.2783 92.5699 95.3466C92.6809 95.4063 92.7834 95.4746 92.8944 95.5343C92.9371 95.5428 92.9712 95.5514 93.0054 95.5514Z" fill="#FCB6B1"/>
</g>
<g clip-path="url(#clip4_23_16185)">
<path d="M247.152 114.354H247.106C245.732 114.348 245.011 114.101 244.902 113.598C244.794 113.095 245.349 112.573 246.599 112.002C247.692 111.502 249.185 111.035 250.801 110.686C252.417 110.338 253.967 110.148 255.172 110.153C256.546 110.159 257.267 110.406 257.375 110.909C257.484 111.412 256.929 111.934 255.679 112.505C254.585 113.005 253.093 113.472 251.477 113.821C249.881 114.165 248.348 114.354 247.152 114.354ZM255.125 110.667C253.966 110.667 252.471 110.852 250.909 111.188C246.938 112.045 245.341 113.196 245.405 113.49C245.424 113.579 245.778 113.834 247.108 113.84C248.274 113.844 249.787 113.659 251.368 113.318C255.339 112.462 256.936 111.31 256.873 111.017C256.854 110.928 256.5 110.673 255.17 110.667L255.125 110.667Z" fill="#347AFF"/>
<path d="M247.936 97.4279L251.081 112.02L247.936 97.4279Z" fill="white"/>
<path d="M251.081 112.277C251.022 112.277 250.965 112.257 250.92 112.22C250.874 112.183 250.842 112.132 250.83 112.075L247.684 97.4817C247.677 97.4485 247.676 97.4142 247.682 97.3808C247.688 97.3473 247.7 97.3153 247.718 97.2867C247.737 97.2581 247.76 97.2333 247.788 97.2139C247.816 97.1945 247.848 97.1809 247.881 97.1737C247.914 97.1665 247.948 97.166 247.982 97.1722C248.015 97.1784 248.047 97.1912 248.075 97.2097C248.104 97.2283 248.128 97.2523 248.147 97.2804C248.167 97.3085 248.18 97.3401 248.187 97.3734L251.332 111.966C251.34 112.004 251.34 112.043 251.331 112.08C251.322 112.117 251.305 112.152 251.281 112.182C251.257 112.212 251.226 112.236 251.192 112.252C251.157 112.269 251.119 112.278 251.081 112.278V112.277Z" fill="#347AFF"/>
<path d="M247.936 97.4277C245.699 97.9104 243.05 94.9932 241.113 90.3663C240.728 87.3133 242.532 85.8548 245.271 85.2022C248.416 84.4533 249.851 82.2549 250.018 80.119C250.181 80.7224 250.331 81.3404 250.467 81.9729C252.163 89.8414 251.03 96.761 247.936 97.4277Z" fill="#F73D3B"/>
<path d="M247.443 97.7368C245.254 97.7368 242.787 95.0311 240.875 90.4655C240.071 88.5193 239.447 86.5032 239.011 84.4428C238.622 82.6579 238.372 80.8455 238.264 79.0218C238.262 78.9881 238.266 78.9543 238.278 78.9225C238.289 78.8906 238.306 78.8612 238.329 78.8361C238.351 78.8109 238.378 78.7904 238.409 78.7758C238.439 78.7611 238.472 78.7526 238.506 78.7507C238.54 78.7489 238.573 78.7536 238.605 78.7648C238.637 78.776 238.666 78.7933 238.692 78.8158C238.717 78.8383 238.737 78.8655 238.752 78.896C238.767 78.9264 238.775 78.9594 238.777 78.9931C238.883 80.79 239.13 82.5758 239.513 84.3344C239.942 86.3641 240.557 88.35 241.35 90.267C243.29 94.9019 245.853 97.6141 247.881 97.1766C249.247 96.8822 250.291 95.1264 250.744 92.3595C251.217 89.4714 251.029 85.802 250.216 82.0271C250.083 81.4097 249.934 80.7958 249.769 80.1859C249.474 79.0862 249.124 78.0023 248.718 76.9384C248.696 76.8754 248.699 76.8061 248.727 76.7455C248.756 76.6848 248.806 76.6375 248.869 76.6136C248.931 76.5897 249 76.591 249.062 76.6173C249.123 76.6436 249.172 76.6929 249.198 76.7546C249.609 77.8347 249.966 78.9352 250.265 80.0517C250.432 80.6699 250.583 81.2922 250.718 81.9181C251.545 85.7548 251.734 89.4918 251.251 92.4419C250.754 95.4724 249.596 97.332 247.989 97.6783C247.81 97.7171 247.627 97.7367 247.443 97.7368Z" fill="#347AFF"/>
<path d="M240.932 80.1436C240.705 80.1436 240.488 80.1362 240.282 80.1213C239.096 80.0355 238.409 79.7072 238.293 79.1718C238.178 78.6363 238.669 78.0537 239.714 77.4872C240.656 76.9766 241.952 76.5281 243.365 76.2231C244.778 75.9181 246.144 75.7933 247.212 75.8706C248.397 75.9562 249.085 76.2847 249.2 76.8202C249.316 77.3557 248.825 77.9381 247.78 78.5047C246.838 79.0152 245.542 79.4641 244.129 79.7687C243.079 80.0038 242.008 80.1294 240.932 80.1436ZM246.572 76.3583C245.529 76.3725 244.49 76.4955 243.473 76.7254C240.405 77.3868 238.681 78.5329 238.796 79.0634C238.91 79.594 240.954 79.9279 244.021 79.2665C245.387 78.9719 246.635 78.5409 247.535 78.053C248.464 77.5492 248.743 77.1324 248.698 76.9284C248.629 76.6074 247.853 76.3583 246.572 76.3583Z" fill="#347AFF"/>
</g>
<g clip-path="url(#clip5_23_16185)">
<path d="M241.876 93.8034C246.34 94.032 255.976 91.125 250.373 95.9703C247.799 98.1965 246.489 99.0263 243.725 102.157" fill="#F4ADA2"/>
<path d="M243.725 102.368C243.684 102.368 243.644 102.357 243.61 102.335C243.576 102.313 243.549 102.281 243.532 102.244C243.515 102.207 243.509 102.166 243.515 102.125C243.521 102.085 243.539 102.048 243.566 102.017C245.678 99.6244 246.953 98.5627 248.567 97.2185C249.084 96.7878 249.619 96.3424 250.234 95.8102C251.892 94.3765 251.912 93.8621 251.844 93.7074C251.576 93.1016 248.886 93.4174 246.725 93.6712C244.998 93.8744 243.212 94.0838 241.865 94.0148C241.836 94.0137 241.809 94.0071 241.783 93.9953C241.758 93.9835 241.735 93.9668 241.716 93.9461C241.697 93.9255 241.682 93.9012 241.673 93.8749C241.664 93.8485 241.659 93.8205 241.661 93.7925C241.662 93.7645 241.669 93.7371 241.681 93.7118C241.694 93.6865 241.711 93.6639 241.732 93.6453C241.753 93.6267 241.777 93.6124 241.804 93.6032C241.83 93.5941 241.858 93.5904 241.886 93.5922C243.198 93.6593 244.965 93.4517 246.675 93.2509C249.876 92.8751 251.856 92.688 252.232 93.5366C252.477 94.0899 251.946 94.8898 250.512 96.13C249.894 96.6648 249.358 97.1118 248.839 97.5435C247.239 98.876 245.975 99.9285 243.885 102.297C243.865 102.319 243.84 102.337 243.813 102.35C243.785 102.362 243.755 102.369 243.725 102.368Z" fill="#D37E70"/>
</g>
<g clip-path="url(#clip6_23_16185)">
<path d="M115.601 62.9198C115.383 63.0863 113.055 64.7601 109.129 64.6199C105.064 64.4709 103.127 62.6131 102.953 62.4378C102.944 62.4291 102.944 62.4203 102.944 62.4115L106.94 54.2003L108.13 51.7465L109.841 48.2412C109.85 48.2237 109.859 48.2149 109.876 48.2237C109.885 48.2237 109.885 48.2324 109.893 48.2412L112.96 56.0932L113.941 58.617L115.609 62.8935C115.618 62.9023 115.609 62.911 115.601 62.9198Z" fill="#347AFF"/>
<path d="M106.878 62.981C107.632 62.981 108.242 62.365 108.242 61.6052C108.242 60.8453 107.632 60.2293 106.878 60.2293C106.125 60.2293 105.515 60.8453 105.515 61.6052C105.515 62.365 106.125 62.981 106.878 62.981Z" fill="#FFCE3E"/>
<path d="M113.941 58.6169C113.732 58.7483 113.489 58.8184 113.22 58.8184C112.464 58.8184 111.856 58.205 111.856 57.4426C111.856 56.7765 112.325 56.2157 112.959 56.093L113.941 58.6169ZM109.059 53.0521C109.059 53.8145 108.451 54.428 107.695 54.428C107.417 54.428 107.156 54.3403 106.939 54.2001L108.129 51.7464C108.668 51.9392 109.059 52.4475 109.059 53.0521Z" fill="#FFCE3E"/>
</g>
<g clip-path="url(#clip7_23_16185)">
<path d="M172.798 49.6213C172.794 49.6108 172.787 49.6016 172.777 49.595C172.768 49.5884 172.757 49.5845 172.746 49.5839C172.735 49.5833 172.723 49.5859 172.713 49.5915C172.704 49.5971 172.696 49.6054 172.69 49.6154L165.419 63.8014C166.095 64.4782 168.787 65.903 171.853 66.128C175.589 66.4022 178.477 64.7391 178.679 64.6086L172.798 49.6213Z" fill="#F73D3B"/>
<mask id="mask0_23_16185" style="mask-type:luminance" maskUnits="userSpaceOnUse" x="165" y="49" width="14" height="18">
<path d="M172.798 49.6213C172.794 49.6108 172.787 49.6016 172.777 49.595C172.768 49.5884 172.757 49.5845 172.746 49.5839C172.735 49.5833 172.723 49.5859 172.713 49.5915C172.704 49.5971 172.696 49.6054 172.69 49.6154L165.419 63.8014C166.095 64.4782 168.787 65.903 171.853 66.128C175.589 66.4022 178.477 64.7391 178.679 64.6086L172.798 49.6213Z" fill="white"/>
</mask>
<g mask="url(#mask0_23_16185)">
<path d="M172.714 62.4646C172.42 62.4646 172.121 62.453 171.818 62.4276C170.362 62.2954 168.934 61.9464 167.581 61.3922C166.489 60.9475 165.546 60.4058 165.118 59.9786C165.055 59.9151 165.013 59.8331 164.999 59.7442C164.984 59.6554 164.999 59.5644 165.039 59.4842L167.289 55.043C167.315 54.9917 167.351 54.9463 167.395 54.9094C167.439 54.8725 167.489 54.8449 167.544 54.8282C167.599 54.8116 167.657 54.8063 167.714 54.8126C167.771 54.8189 167.826 54.8367 167.876 54.865C169.193 55.5868 170.648 56.0232 172.144 56.1459C174.145 56.2929 175.842 55.7162 176.676 55.3593C176.728 55.3369 176.785 55.3253 176.842 55.3252C176.898 55.325 176.955 55.3363 177.007 55.3585C177.06 55.3806 177.107 55.4131 177.147 55.4539C177.187 55.4948 177.218 55.5433 177.238 55.5965L179.075 60.3295C179.11 60.421 179.113 60.5221 179.083 60.6156C179.053 60.7091 178.991 60.7891 178.909 60.8422C178.881 60.8599 176.158 62.4646 172.714 62.4646ZM165.949 59.5692C166.793 60.1958 169.125 61.3481 171.888 61.5789C174.802 61.8226 177.305 60.716 178.148 60.2882L176.602 56.3063C175.611 56.6815 173.973 57.1343 172.082 56.9953C170.61 56.8735 169.174 56.4727 167.851 55.8142L165.949 59.5692Z" fill="#FFCE3E"/>
</g>
</g>
<g clip-path="url(#clip8_23_16185)">
<path d="M204.652 57.3737C204.696 57.4876 204.736 57.6039 204.774 57.7225C205.279 59.3187 205.045 61.4367 204.229 62.6487C203.817 63.2601 203.282 63.6079 202.68 63.6532C202.641 63.6564 202.601 63.6518 202.564 63.6397C202.527 63.6276 202.492 63.6082 202.462 63.5826C202.432 63.557 202.407 63.5258 202.389 63.4906C202.372 63.4555 202.361 63.4172 202.358 63.3779C202.355 63.3386 202.36 63.2991 202.372 63.2617C202.384 63.2243 202.404 63.1897 202.429 63.16C202.455 63.1302 202.486 63.1058 202.521 63.0883C202.557 63.0707 202.595 63.0603 202.634 63.0577C203.054 63.0261 203.424 62.7758 203.735 62.3136C204.448 61.2555 204.654 59.3176 204.206 57.9018C203.66 56.1768 202.547 55.298 201.776 55.3464C201.757 55.3476 201.737 55.3495 201.718 55.3519C201.87 55.8033 201.966 56.2718 202.003 56.7466C202.097 57.9237 201.851 58.7983 201.344 59.0859C201.231 59.153 201.1 59.1849 200.969 59.1776C200.837 59.1703 200.711 59.1241 200.605 59.0449C200.11 58.6924 199.934 57.7407 200.146 56.5612C200.272 55.862 200.552 55.3406 200.949 55.0406C200.517 54.1205 199.858 53.4704 199.255 53.2373C199.092 53.1668 198.913 53.1426 198.738 53.1674C198.562 53.1922 198.397 53.265 198.26 53.3779C197.806 53.761 197.66 54.5619 197.861 55.5749C197.868 55.6134 197.868 55.653 197.861 55.6914C197.853 55.7299 197.838 55.7664 197.816 55.799C197.795 55.8315 197.767 55.8595 197.734 55.8812C197.702 55.9029 197.665 55.918 197.627 55.9255C197.588 55.9331 197.549 55.933 197.51 55.9253C197.472 55.9175 197.436 55.9023 197.403 55.8804C197.371 55.8586 197.343 55.8305 197.321 55.7978C197.299 55.7652 197.284 55.7286 197.276 55.6901C196.942 54.0022 197.509 53.2302 197.876 52.9204C198.095 52.7393 198.358 52.6214 198.639 52.5791C198.919 52.5368 199.206 52.5717 199.468 52.6803C200.207 52.9662 200.989 53.719 201.49 54.7868C201.572 54.7681 201.654 54.7561 201.738 54.751C202.849 54.6809 204.036 55.7666 204.652 57.3737ZM200.771 58.2861C200.804 58.3917 200.866 58.486 200.95 58.5582C200.963 58.5712 200.98 58.5791 200.998 58.5805C201.016 58.582 201.035 58.5769 201.05 58.5661C201.242 58.4568 201.497 57.8942 201.409 56.7924C201.378 56.3984 201.302 56.0093 201.182 55.6327C200.969 55.8566 200.815 56.207 200.733 56.6682C200.593 57.4454 200.654 57.9816 200.771 58.2861Z" fill="#347AFF"/>
</g>
<g clip-path="url(#clip9_23_16185)">
<path d="M232.306 146.23C232.254 146.12 232.205 146.006 232.159 145.891C231.541 144.335 231.623 142.205 232.351 140.938C232.718 140.299 233.228 139.914 233.825 139.826C233.863 139.82 233.903 139.822 233.941 139.831C233.979 139.84 234.015 139.857 234.047 139.881C234.079 139.904 234.106 139.933 234.126 139.967C234.146 140.001 234.16 140.038 234.166 140.077C234.171 140.116 234.169 140.156 234.16 140.194C234.15 140.232 234.133 140.268 234.11 140.3C234.086 140.331 234.057 140.358 234.023 140.378C233.989 140.398 233.952 140.411 233.913 140.417C233.496 140.478 233.145 140.754 232.868 141.237C232.233 142.343 232.165 144.291 232.713 145.671C233.381 147.353 234.554 148.15 235.319 148.047C235.338 148.044 235.358 148.041 235.377 148.037C235.192 147.598 235.063 147.137 234.993 146.666C234.815 145.499 234.998 144.609 235.483 144.286C235.591 144.211 235.719 144.17 235.851 144.168C235.982 144.166 236.112 144.203 236.223 144.274C236.742 144.591 236.985 145.527 236.858 146.719C236.783 147.425 236.54 147.965 236.166 148.293C236.662 149.18 237.366 149.781 237.984 149.971C238.151 150.03 238.332 150.041 238.505 150.004C238.678 149.966 238.838 149.882 238.966 149.76C239.392 149.345 239.481 148.536 239.208 147.54C239.198 147.502 239.195 147.462 239.2 147.423C239.204 147.385 239.217 147.347 239.236 147.313C239.256 147.279 239.282 147.249 239.312 147.225C239.343 147.201 239.379 147.183 239.416 147.173C239.454 147.163 239.493 147.16 239.532 147.165C239.571 147.17 239.609 147.183 239.643 147.202C239.677 147.222 239.706 147.248 239.73 147.279C239.755 147.31 239.772 147.345 239.783 147.383C240.237 149.043 239.727 149.853 239.382 150.188C239.177 150.385 238.923 150.521 238.646 150.583C238.369 150.646 238.081 150.631 237.811 150.542C237.053 150.309 236.22 149.614 235.644 148.585C235.564 148.609 235.482 148.627 235.4 148.638C234.296 148.787 233.034 147.789 232.306 146.23ZM236.112 145.043C236.071 144.94 236.003 144.85 235.914 144.784C235.9 144.772 235.882 144.766 235.864 144.766C235.846 144.765 235.828 144.772 235.814 144.784C235.63 144.906 235.416 145.486 235.581 146.578C235.64 146.969 235.744 147.352 235.891 147.719C236.087 147.48 236.216 147.12 236.265 146.654C236.349 145.869 236.25 145.338 236.112 145.043Z" fill="#11CC4A"/>
</g>
<g clip-path="url(#clip10_23_16185)">
<path d="M25.0461 123.788C24.9242 123.788 24.801 123.785 24.6768 123.777C23.0054 123.678 21.1112 122.703 20.2711 121.507C19.8475 120.904 19.7143 120.279 19.8872 119.701C19.8982 119.663 19.9166 119.628 19.9412 119.597C19.9659 119.567 19.9965 119.541 20.0311 119.523C20.0657 119.504 20.1037 119.492 20.1429 119.488C20.1821 119.484 20.2217 119.487 20.2595 119.499C20.2972 119.51 20.3324 119.528 20.3629 119.553C20.3935 119.578 20.4188 119.609 20.4374 119.643C20.456 119.678 20.4676 119.716 20.4714 119.755C20.4752 119.794 20.4713 119.834 20.4597 119.871C20.3391 120.274 20.4404 120.71 20.7608 121.166C21.4941 122.209 23.2299 123.095 24.7124 123.183C26.5187 123.29 27.7375 122.564 27.9677 121.828C27.9736 121.809 27.9788 121.79 27.9835 121.771C27.5075 121.752 27.0357 121.674 26.579 121.539C25.4464 121.205 24.7176 120.663 24.6302 120.087C24.608 119.957 24.6249 119.824 24.6787 119.704C24.7326 119.583 24.8209 119.482 24.9326 119.412C25.4388 119.075 26.3906 119.251 27.4163 119.871C28.0244 120.238 28.411 120.687 28.5492 121.165C29.5629 121.09 30.4057 120.707 30.8391 120.228C30.9632 120.101 31.0498 119.942 31.0894 119.769C31.129 119.597 31.12 119.416 31.0635 119.248C30.8683 118.687 30.1725 118.264 29.1547 118.09C29.116 118.083 29.079 118.069 29.0459 118.048C29.0127 118.027 28.984 118 28.9613 117.968C28.9387 117.936 28.9226 117.9 28.9139 117.862C28.9053 117.824 28.9043 117.784 28.9109 117.746C28.9176 117.707 28.9318 117.67 28.9528 117.637C28.9737 117.604 29.001 117.575 29.033 117.553C29.0651 117.53 29.1013 117.514 29.1395 117.506C29.1778 117.497 29.2174 117.496 29.2561 117.503C30.9521 117.794 31.4702 118.599 31.6281 119.053C31.7191 119.322 31.735 119.61 31.6742 119.887C31.6134 120.164 31.4782 120.42 31.283 120.626C30.7516 121.214 29.769 121.675 28.5927 121.761C28.581 121.843 28.5626 121.925 28.5375 122.005C28.2055 123.068 26.7671 123.788 25.0461 123.788ZM25.582 119.838C25.4716 119.831 25.3614 119.855 25.264 119.907C25.2473 119.915 25.2337 119.928 25.2258 119.945C25.2179 119.961 25.2162 119.98 25.2209 119.998C25.2541 120.217 25.6884 120.656 26.7486 120.968C27.1276 121.08 27.5184 121.148 27.913 121.17C27.78 120.892 27.5078 120.623 27.1067 120.38C26.4308 119.972 25.9081 119.838 25.582 119.838Z" fill="#347AFF"/>
</g>
<g clip-path="url(#clip11_23_16185)">
<path d="M125.626 107.082C125.55 107.177 125.476 107.275 125.404 107.377C124.435 108.743 124.012 110.831 124.42 112.234C124.626 112.942 125.03 113.437 125.589 113.663C125.625 113.678 125.664 113.686 125.704 113.686C125.743 113.686 125.782 113.678 125.818 113.663C125.855 113.647 125.888 113.625 125.915 113.597C125.943 113.569 125.965 113.536 125.98 113.499C125.995 113.463 126.002 113.424 126.002 113.384C126.002 113.345 125.994 113.306 125.978 113.27C125.963 113.234 125.94 113.201 125.912 113.174C125.884 113.146 125.851 113.125 125.814 113.11C125.424 112.952 125.148 112.601 124.993 112.066C124.637 110.841 125.031 108.932 125.89 107.72C126.936 106.244 128.264 105.747 128.983 106.028C129.001 106.035 129.019 106.043 129.037 106.051C128.754 106.434 128.52 106.851 128.34 107.292C127.892 108.385 127.859 109.293 128.254 109.721C128.341 109.819 128.456 109.89 128.584 109.923C128.711 109.956 128.846 109.95 128.97 109.907C129.549 109.722 130.007 108.87 130.165 107.682C130.259 106.978 130.151 106.396 129.864 105.989C130.556 105.244 131.382 104.826 132.027 104.788C132.204 104.77 132.382 104.802 132.541 104.879C132.701 104.956 132.836 105.076 132.932 105.225C133.248 105.729 133.142 106.536 132.642 107.439C132.623 107.474 132.611 107.511 132.607 107.55C132.602 107.589 132.605 107.629 132.616 107.666C132.627 107.704 132.645 107.739 132.669 107.77C132.694 107.8 132.724 107.826 132.758 107.845C132.792 107.864 132.83 107.876 132.869 107.88C132.908 107.884 132.947 107.881 132.985 107.87C133.023 107.859 133.058 107.841 133.088 107.816C133.119 107.792 133.145 107.762 133.164 107.727C133.997 106.222 133.693 105.314 133.437 104.907C133.284 104.668 133.069 104.475 132.815 104.349C132.561 104.223 132.277 104.169 131.994 104.192C131.203 104.239 130.229 104.718 129.426 105.582C129.354 105.539 129.279 105.503 129.201 105.472C128.164 105.067 126.702 105.739 125.626 107.082ZM129.044 109.134C128.98 109.225 128.893 109.295 128.791 109.339C128.774 109.347 128.756 109.349 128.738 109.345C128.72 109.341 128.704 109.33 128.693 109.316C128.543 109.153 128.472 108.539 128.891 107.517C129.041 107.151 129.232 106.804 129.462 106.482C129.596 106.76 129.636 107.14 129.574 107.605C129.47 108.388 129.248 108.88 129.044 109.134Z" fill="#F73D3B"/>
</g>
<g clip-path="url(#clip12_23_16185)">
<path d="M132.05 128.087C126.34 127.148 119.458 130.436 125.245 131.61C127.532 132.074 131.033 132.393 135.022 135.211" fill="#F4ADA2"/>
<path d="M135.022 135.434C134.976 135.434 134.931 135.419 134.894 135.393C131.471 132.974 128.408 132.418 126.171 132.011C125.829 131.949 125.505 131.89 125.201 131.828C124.034 131.591 122.678 131.114 122.847 130.188C123.13 128.648 127.955 127.189 132.086 127.868C132.144 127.878 132.196 127.91 132.23 127.958C132.265 128.006 132.279 128.065 132.269 128.124C132.259 128.182 132.227 128.234 132.179 128.268C132.131 128.302 132.072 128.316 132.014 128.307C128.065 127.657 123.496 129.115 123.284 130.268C123.205 130.701 123.955 131.121 125.29 131.392C125.589 131.453 125.91 131.512 126.251 131.573C128.528 131.988 131.647 132.555 135.15 135.03C135.188 135.057 135.217 135.096 135.232 135.141C135.247 135.185 135.248 135.234 135.234 135.279C135.219 135.324 135.191 135.363 135.153 135.391C135.115 135.419 135.069 135.434 135.022 135.434Z" fill="#D37E70"/>
</g>
<g clip-path="url(#clip13_23_16185)">
<path d="M82.74 48.6437C82.654 48.5572 82.5647 48.4724 82.4719 48.3893C81.2242 47.273 79.197 46.6165 77.7568 46.8626C77.0301 46.9873 76.493 47.3328 76.2046 47.8628C76.1856 47.8972 76.1735 47.935 76.1692 47.9741C76.1649 48.0132 76.1683 48.0528 76.1794 48.0906C76.1904 48.1284 76.2088 48.1637 76.2335 48.1944C76.2582 48.2251 76.2887 48.2507 76.3233 48.2696C76.3579 48.2885 76.3958 48.3003 76.435 48.3045C76.4741 48.3087 76.5137 48.3051 76.5514 48.2939C76.589 48.2827 76.6241 48.2642 76.6546 48.2393C76.685 48.2145 76.7102 48.1839 76.7287 48.1492C76.9299 47.7795 77.3103 47.5445 77.8594 47.4508C79.1167 47.2358 80.9685 47.8432 82.0753 48.8335C83.4238 50.0399 83.7678 51.4158 83.4074 52.0982C83.3982 52.1157 83.3884 52.1327 83.3783 52.1494C83.0294 51.8249 82.6416 51.5451 82.2238 51.3164C81.189 50.7479 80.2905 50.6128 79.8203 50.9565C79.7126 51.0322 79.6299 51.1382 79.5826 51.2611C79.5352 51.3839 79.5254 51.5182 79.5543 51.6469C79.6723 52.2431 80.4679 52.7944 81.6302 53.0857C82.3193 53.2585 82.9098 53.2169 83.3465 52.9781C84.0079 53.7499 84.3299 54.6179 84.295 55.2632C84.2924 55.4407 84.2409 55.6139 84.1462 55.7637C84.0515 55.9135 83.9173 56.0342 83.7582 56.1125C83.2223 56.3695 82.4321 56.1736 81.591 55.5745C81.559 55.5517 81.5229 55.5355 81.4847 55.5267C81.4465 55.5178 81.407 55.5166 81.3684 55.523C81.3298 55.5295 81.2928 55.5435 81.2597 55.5642C81.2265 55.5849 81.1978 55.612 81.1751 55.6439C81.1525 55.6758 81.1363 55.7118 81.1276 55.75C81.1189 55.7882 81.1178 55.8277 81.1244 55.8663C81.131 55.905 81.1451 55.9419 81.1659 55.9752C81.1868 56.0084 81.214 56.0372 81.2459 56.06C82.6475 57.0584 83.5841 56.8586 84.0176 56.6506C84.2723 56.5259 84.4882 56.334 84.6419 56.0957C84.7956 55.8574 84.8815 55.5815 84.8904 55.2976C84.9332 54.5063 84.568 53.4843 83.8001 52.589C83.8506 52.5224 83.8955 52.4518 83.9344 52.3779C84.4548 51.3933 83.9525 49.8651 82.74 48.6437ZM80.3141 51.8076C80.2314 51.7341 80.1709 51.639 80.1394 51.533C80.1329 51.5158 80.1328 51.4968 80.139 51.4795C80.1452 51.4622 80.1574 51.4477 80.1733 51.4385C80.352 51.3079 80.9696 51.3067 81.9383 51.8389C82.2848 52.029 82.6082 52.2585 82.9021 52.5229C82.6107 52.6247 82.228 52.6211 81.7735 52.5071C81.0075 52.3152 80.5439 52.039 80.3141 51.8076Z" fill="#FFCE3E"/>
</g>
<defs>
<clipPath id="clip0_23_16185">
<rect width="27.88" height="5.695" fill="white" transform="translate(124.109 235.224)"/>
</clipPath>
<clipPath id="clip1_23_16185">
<rect width="26.945" height="5.44" fill="white" transform="translate(75.4037 236.159)"/>
</clipPath>
<clipPath id="clip2_23_16185">
<rect width="147.985" height="176.885" fill="white" transform="translate(112.974 62.5885)"/>
</clipPath>
<clipPath id="clip3_23_16185">
<rect width="109.65" height="201.45" fill="white" transform="translate(31.0337 38.3635)"/>
</clipPath>
<clipPath id="clip4_23_16185">
<rect width="19.125" height="38.505" fill="white" transform="translate(238.264 75.8485)"/>
</clipPath>
<clipPath id="clip5_23_16185">
<rect width="10.625" height="9.435" fill="white" transform="translate(241.664 92.9335)"/>
</clipPath>
<clipPath id="clip6_23_16185">
<rect width="12.665" height="16.405" fill="white" transform="translate(102.944 48.2235)"/>
</clipPath>
<clipPath id="clip7_23_16185">
<rect width="14.11" height="16.575" fill="white" transform="translate(164.994 49.5835)"/>
</clipPath>
<clipPath id="clip8_23_16185">
<rect width="11.9" height="6.29" fill="white" transform="translate(200.65 64.5097) rotate(-110.955)"/>
</clipPath>
<clipPath id="clip9_23_16185">
<rect width="11.9" height="6.29" fill="white" transform="translate(235.789 138.827) rotate(64.9534)"/>
</clipPath>
<clipPath id="clip10_23_16185">
<rect width="11.9" height="6.29" fill="white" transform="translate(19.8136 117.499)"/>
</clipPath>
<clipPath id="clip11_23_16185">
<rect width="11.9" height="6.29" fill="white" transform="matrix(0.62538 -0.78032 -0.78032 -0.62538 127.262 115.098)"/>
</clipPath>
<clipPath id="clip12_23_16185">
<rect width="12.41" height="7.735" fill="white" transform="translate(122.834 127.699)"/>
</clipPath>
<clipPath id="clip13_23_16185">
<rect width="11.9" height="6.29" fill="white" transform="matrix(0.704596 0.709609 0.709609 -0.704596 74.5897 49.3623)"/>
</clipPath>
</defs>
</svg>
