<svg width="22" height="25" viewBox="0 0 22 25" fill="none" xmlns="http://www.w3.org/2000/svg">
<path d="M0.874023 23.5041H4.08778V1.31105H0.874023V0.0376778H21.1267V7.19282H19.8534C19.7321 5.13117 19.4087 3.73652 18.8832 3.00888C18.1555 1.99827 16.8215 1.43232 14.8811 1.31105H8.45363V11.9225H11.9706C13.9109 11.9225 14.9418 11.2555 15.063 9.92148C15.1035 9.67894 15.1237 9.43639 15.1237 9.19384C15.1641 8.91087 15.2045 8.64811 15.245 8.40556H16.5183V16.8947H15.245C15.2045 16.6522 15.1641 16.3692 15.1237 16.0458C15.1237 15.682 15.1035 15.399 15.063 15.1969C14.9013 13.8629 13.8705 13.1959 11.9706 13.1959H8.45363V23.5041H13.6684V24.7775H0.874023V23.5041Z" fill="white"/>
</svg>
